<?xml version="1.0" standalone="no"?>
<!DOCTYPE svg PUBLIC "-//W3C//DTD SVG 20010904//EN"
 "http://www.w3.org/TR/2001/REC-SVG-20010904/DTD/svg10.dtd">
<svg version="1.0" xmlns="http://www.w3.org/2000/svg"
 width="1080.000000pt" height="1920.000000pt" viewBox="0 0 1080.000000 1920.000000"
 preserveAspectRatio="xMidYMid meet">

<g transform="translate(0.000000,1920.000000) scale(0.100000,-0.100000)"
fill="#000000" stroke="none">
<path d="M310 19182 c0 -12 3 -12 15 -2 8 7 15 13 15 15 0 1 -7 2 -15 2 -8 0
-15 -7 -15 -15z"/>
<path d="M360 19178 c0 -19 -2 -20 -10 -8 -9 13 -12 13 -24 -3 -13 -17 -51
-14 -40 4 3 5 -2 6 -11 3 -12 -5 -13 -9 -4 -20 9 -11 8 -14 -5 -14 -11 0 -16
9 -17 28 -1 26 -1 26 -8 4 -10 -36 3 -162 17 -171 10 -6 10 -10 -3 -21 -19
-16 -20 -66 0 -74 11 -4 15 2 15 20 0 15 4 23 11 19 6 -4 8 -9 6 -12 -3 -2 1
-16 9 -31 12 -23 12 -28 -1 -38 -13 -10 -12 -13 6 -26 19 -12 20 -17 10 -36
-10 -18 -9 -22 4 -22 29 0 7 -60 -23 -61 -12 0 -9 -3 7 -10 14 -5 30 -8 37 -5
16 6 64 -38 64 -58 0 -10 6 -13 15 -10 9 4 15 0 15 -9 0 -8 -6 -17 -12 -20
-10 -3 -10 -9 -2 -23 16 -27 56 -24 70 4 6 13 29 32 50 43 46 25 114 93 114
114 0 9 7 32 15 53 10 22 17 74 19 128 2 82 0 93 -17 104 -15 9 -17 14 -7 20
9 5 9 9 1 14 -6 4 -14 0 -17 -8 -3 -9 -11 -13 -17 -9 -6 4 -25 8 -42 10 -23 2
-26 0 -15 -7 13 -9 13 -11 0 -20 -13 -9 -13 -11 0 -21 13 -9 13 -10 0 -5 -8 2
-32 10 -53 17 -24 8 -36 17 -33 26 3 7 -1 13 -8 13 -15 0 -39 -24 -31 -31 2
-3 -6 -6 -19 -7 -14 -1 -23 4 -23 13 0 8 4 12 8 10 13 -9 17 21 9 65 -4 25
-13 46 -19 48 -6 2 -11 12 -11 23 0 10 -7 19 -15 19 -9 0 -15 -9 -15 -22z
m-97 -67 c2 -10 1 -25 -4 -32 -6 -10 -9 -4 -9 19 0 36 5 42 13 13z m34 13 c-3
-3 -12 -4 -19 -1 -8 3 -5 6 6 6 11 1 17 -2 13 -5z"/>
<path d="M517 19184 c4 -11 8 -12 13 -4 6 9 9 9 12 -1 2 -7 10 -9 16 -5 18 11
4 26 -23 26 -18 0 -23 -4 -18 -16z"/>
<path d="M918 19188 c-3 -7 -3 -19 0 -27 4 -11 6 -11 13 0 7 11 9 10 9 -3 0
-10 -5 -18 -11 -18 -5 0 -9 -8 -7 -17 1 -10 -1 -24 -6 -32 -7 -10 -5 -12 5 -7
8 4 5 0 -5 -8 -11 -9 -16 -16 -10 -16 5 0 2 -5 -6 -10 -8 -5 -10 -10 -4 -10
15 0 29 -84 25 -147 0 -14 -8 -23 -18 -24 -18 -1 -16 -2 25 -15 9 -3 10 -9 3
-23 -8 -14 -7 -20 3 -24 11 -4 13 -20 10 -64 -2 -32 -6 -64 -9 -70 -2 -7 -1
-13 4 -13 9 0 7 -57 -4 -83 -5 -12 -2 -22 10 -31 13 -9 16 -23 13 -54 -2 -23
0 -42 4 -42 4 0 5 -7 2 -15 -7 -16 11 -21 20 -6 4 5 0 36 -8 70 -8 33 -10 61
-6 63 5 2 10 15 12 29 4 32 25 59 45 59 8 0 12 4 8 9 -3 5 -1 12 4 15 15 10
18 -62 4 -77 -12 -11 -11 -14 2 -14 8 0 13 2 11 5 -3 2 7 15 21 28 19 18 22
24 10 24 -13 0 -15 9 -11 47 6 56 7 58 33 42 15 -10 17 -16 9 -26 -8 -10 -6
-13 6 -13 11 0 16 9 16 33 0 24 -3 28 -10 17 -5 -8 -10 -12 -10 -8 0 3 -3 13
-6 22 -5 13 1 16 27 17 31 1 32 2 9 8 -14 4 -25 13 -25 21 0 8 -7 18 -15 22
-12 5 -12 7 3 7 9 1 17 6 17 12 0 5 5 7 10 4 6 -3 10 3 10 13 0 18 3 19 25 9
14 -7 25 -15 25 -19 0 -13 17 -9 17 5 3 42 12 105 18 120 5 11 3 17 -6 17 -11
0 -11 2 0 9 20 13 25 59 9 74 -24 22 -48 20 -49 -5 -1 -13 -5 -3 -10 21 -5 24
-10 46 -13 48 -2 3 -20 0 -40 -5 -31 -9 -38 -8 -46 9 -6 10 -8 19 -5 19 4 0 0
7 -9 15 -19 20 -27 19 -19 -2 5 -12 3 -14 -7 -8 -10 6 -12 4 -6 -11 5 -14 4
-16 -4 -8 -6 6 -13 20 -14 30 -2 15 -13 20 -48 22 -30 2 -47 -1 -50 -10z m283
-169 c9 -17 8 -20 -3 -15 -7 4 -3 0 9 -9 17 -13 19 -20 10 -29 -9 -10 -16 -8
-34 10 -20 20 -22 26 -11 44 16 25 15 25 29 -1z m9 -107 c0 -4 -7 -15 -14 -25
-15 -20 -25 -12 -21 16 2 9 -1 17 -6 17 -6 0 -7 5 -4 10 7 11 45 -5 45 -18z
m-193 -4 c-3 -8 -6 -5 -6 6 -1 11 2 17 5 13 3 -3 4 -12 1 -19z m27 -35 c-24
-25 -26 -17 -8 35 6 15 7 15 14 -3 4 -12 2 -25 -6 -32z"/>
<path d="M1292 19170 c3 -18 0 -31 -9 -34 -17 -7 -17 -63 0 -69 9 -4 9 -8 -2
-15 -11 -8 -9 -11 9 -17 14 -4 25 -3 30 5 6 9 9 9 13 -1 4 -10 6 -10 6 -1 2
20 19 14 27 -10 11 -31 11 -34 13 -63 2 -38 18 -30 26 13 4 20 11 42 15 47 5
6 8 24 6 40 -2 17 -4 44 -5 62 -1 25 -5 31 -17 26 -12 -4 -14 0 -8 21 5 20 2
26 -10 26 -12 0 -14 -7 -10 -30 8 -36 -9 -46 -50 -30 -23 8 -27 15 -24 35 3
14 1 25 -5 25 -5 0 -7 -13 -5 -30z m71 -70 c3 -11 2 -20 -3 -20 -4 0 -10 9
-13 20 -3 11 -2 20 3 20 4 0 10 -9 13 -20z"/>
<path d="M9150 19158 c0 -23 3 -38 8 -34 4 4 7 11 7 14 0 4 4 12 8 19 8 13 -1
43 -14 43 -5 0 -9 -19 -9 -42z"/>
<path d="M9224 19188 c-4 -6 1 -17 12 -25 15 -11 19 -11 27 2 15 28 -22 51
-39 23z"/>
<path d="M9487 19187 c-3 -9 -2 -19 4 -23 15 -9 18 -2 9 20 -6 17 -7 18 -13 3z"/>
<path d="M9883 19168 c0 -18 -5 -34 -11 -36 -7 -2 -12 -8 -12 -14 0 -7 4 -7
13 1 10 7 17 7 24 0 14 -14 25 4 29 47 2 29 -1 34 -20 34 -19 0 -23 -5 -23
-32z"/>
<path d="M9960 19191 c0 -6 4 -13 10 -16 6 -3 7 1 4 9 -7 18 -14 21 -14 7z"/>
<path d="M10085 19190 c11 -5 14 -9 8 -9 -7 -1 -13 -7 -13 -15 0 -8 -6 -16
-14 -19 -15 -6 -19 -57 -5 -57 5 0 9 5 9 10 0 6 8 10 18 10 13 0 14 -2 3 -9
-8 -5 -11 -16 -7 -28 4 -12 1 -25 -8 -32 -17 -14 -29 0 -20 23 3 9 2 16 -3 16
-12 0 -13 -14 -13 -124 1 -72 4 -92 18 -102 9 -8 13 -14 9 -14 -5 0 -1 -7 7
-16 9 -8 14 -20 10 -25 -3 -6 1 -21 10 -34 9 -13 16 -37 17 -52 1 -38 11 -58
29 -58 10 0 15 -10 15 -30 1 -16 4 -40 9 -53 5 -14 3 -28 -4 -37 -16 -19 -34
-19 -27 0 4 8 1 17 -5 21 -7 4 -8 3 -4 -4 4 -7 1 -12 -7 -12 -8 0 -17 11 -19
25 -3 14 -1 25 4 25 5 0 7 4 3 10 -3 5 -11 7 -18 5 -7 -3 -17 6 -24 20 -6 14
-8 23 -3 20 4 -3 11 2 14 11 3 8 2 13 -2 10 -4 -2 -16 2 -26 10 -15 10 -20 27
-20 69 -1 30 -6 57 -12 59 -8 3 -9 19 -1 56 7 38 7 54 -1 59 -8 5 -9 17 -3 39
8 25 6 36 -10 56 -12 15 -16 27 -9 31 6 4 8 11 5 16 -4 5 0 9 7 9 10 0 11 2 0
8 -7 5 -10 16 -7 25 8 20 -11 57 -30 57 -14 0 -20 -14 -15 -35 1 -5 4 -31 6
-57 3 -38 1 -48 -11 -48 -8 0 -15 5 -15 10 0 6 -7 10 -16 10 -11 0 -15 6 -11
20 3 10 -2 25 -10 31 -8 7 -13 8 -12 3 3 -20 -14 -53 -25 -47 -6 4 -5 0 2 -9
9 -11 10 -18 2 -23 -5 -3 -10 -1 -10 4 0 6 -4 11 -10 11 -5 0 -7 -7 -4 -15 4
-8 11 -15 18 -15 7 0 10 -23 8 -72 -2 -39 -7 -66 -11 -59 -6 10 -10 9 -14 -3
-4 -11 -1 -16 11 -16 10 0 13 -3 6 -8 -12 -8 -17 -82 -13 -204 1 -38 6 -47 23
-52 19 -6 19 -8 5 -19 -26 -20 -37 -50 -32 -87 8 -61 14 -68 28 -30 7 21 9 40
4 46 -7 8 -2 10 16 6 28 -5 33 -20 10 -28 -10 -4 -14 -17 -11 -45 4 -46 5 -47
31 -31 12 7 16 15 10 19 -5 5 -11 15 -13 23 -2 12 1 11 11 -2 10 -13 16 -15
25 -6 9 9 12 8 12 -6 0 -10 -5 -14 -11 -10 -8 5 -10 -1 -7 -20 4 -20 1 -26
-12 -26 -10 0 -20 -10 -24 -24 -3 -13 -15 -26 -26 -29 -26 -7 -26 -29 0 -52
16 -14 17 -21 8 -32 -9 -11 -8 -21 6 -44 17 -28 16 -29 -2 -29 -13 0 -21 -9
-25 -26 -3 -19 -1 -24 10 -19 12 4 14 0 10 -15 -3 -11 -1 -20 4 -20 5 0 9 5 9
11 0 5 5 7 10 4 6 -4 8 -11 4 -16 -3 -6 4 -21 16 -34 14 -15 18 -25 11 -30 -6
-3 -11 -19 -11 -36 0 -16 -5 -29 -11 -29 -5 0 -7 5 -3 12 4 7 3 8 -4 4 -13 -8
-16 -36 -4 -36 16 0 52 32 52 46 0 8 4 14 9 14 9 0 26 -66 22 -84 -1 -4 3 -14
9 -21 8 -10 7 -14 -2 -18 -7 -3 -3 -6 10 -6 21 -1 33 -21 11 -21 -6 0 -17 -7
-25 -15 -9 -8 -11 -15 -6 -15 11 0 4 -38 -10 -56 -5 -7 -2 -16 7 -24 17 -14
20 -50 5 -50 -5 0 -10 5 -10 11 0 5 -5 7 -11 3 -7 -4 -1 -13 16 -24 18 -12 23
-19 13 -22 -17 -6 -18 -95 -1 -95 6 0 9 6 6 13 -2 7 3 11 13 11 11 -2 18 7 21
26 2 15 -1 27 -6 27 -6 0 -8 7 -4 17 5 14 8 13 14 -5 6 -16 17 -22 36 -22 l28
1 -30 16 c-16 9 -25 18 -19 20 6 2 8 17 6 35 -3 21 -1 29 6 24 6 -4 9 -13 5
-21 -3 -10 2 -15 16 -15 12 0 21 -4 21 -8 0 -5 6 -16 13 -26 13 -18 47 -13 47
6 0 7 -5 6 -14 -1 -20 -17 -27 19 -10 59 8 18 14 41 14 53 0 19 -1 19 -19 3
-18 -16 -19 -16 -29 13 -9 25 -8 31 3 31 8 0 12 -8 10 -20 -2 -11 0 -20 4 -20
15 0 18 46 4 58 -8 8 -13 9 -13 2 0 -5 -6 -10 -12 -10 -7 1 -2 10 11 21 20 16
23 24 14 37 -6 9 -16 16 -22 14 -7 -1 -11 11 -9 33 2 35 -11 61 -19 37 -10
-27 -23 2 -23 53 0 36 -5 57 -14 62 -15 8 -25 87 -13 99 4 4 7 -3 7 -15 0 -12
7 -24 15 -27 8 -4 15 -17 15 -29 0 -13 4 -26 9 -29 5 -4 7 -20 5 -36 -3 -17
-1 -30 5 -30 6 0 11 -8 11 -19 0 -19 17 -39 35 -40 6 -1 11 -4 11 -8 5 -28 18
-52 30 -57 8 -3 14 -19 14 -35 0 -16 5 -42 11 -58 6 -15 12 -54 14 -87 2 -32
8 -63 14 -69 6 -6 11 -28 11 -48 0 -21 3 -40 8 -42 4 -3 6 18 5 45 -1 32 4 59
14 74 12 20 13 27 3 39 -7 9 -10 18 -6 22 3 3 6 1 6 -6 0 -7 4 -10 9 -7 5 3
11 -1 15 -9 8 -22 37 -18 43 5 6 23 23 27 23 5 0 -8 -9 -19 -20 -25 -19 -10
-19 -12 -4 -35 9 -13 13 -28 10 -34 -3 -5 -2 -20 3 -33 l10 -23 2 25 c1 14 1
28 0 33 0 4 4 7 9 7 6 0 10 -5 10 -12 0 -6 3 -8 7 -5 3 4 15 -1 26 -10 11 -10
17 -12 13 -5 -4 7 -1 12 8 12 10 0 13 6 10 15 -4 9 0 15 10 15 9 0 16 7 16 15
0 8 5 15 11 15 5 0 7 5 4 10 -4 6 -11 8 -16 5 -5 -4 -9 1 -9 9 0 9 7 16 15 16
16 0 35 29 32 51 -2 8 -10 24 -18 37 -15 21 -17 21 -30 5 -12 -15 -12 -16 1
-8 8 4 6 -1 -5 -12 -25 -25 -37 -10 -20 24 13 26 55 60 55 46 0 -12 47 -31 57
-24 11 8 33 48 33 61 0 5 -6 9 -12 7 -8 -1 -14 10 -16 28 -2 21 0 26 6 16 7
-10 11 -10 17 -1 10 16 14 120 5 120 -4 0 -3 20 2 44 5 26 6 70 0 110 -7 58
-6 70 9 87 14 16 16 26 8 46 -5 15 -7 45 -4 67 6 43 16 183 15 225 0 14 6 28
12 33 7 4 8 8 3 8 -14 0 -8 131 5 144 7 7 10 6 10 -2 0 -7 5 -12 11 -12 6 0 1
13 -10 29 -16 22 -20 41 -18 92 2 35 6 70 10 77 5 6 4 12 -2 12 -6 0 -11 5
-11 11 0 5 5 7 10 4 6 -3 10 -1 10 4 0 6 -5 11 -12 11 -20 0 -2 11 27 16 16 3
35 2 44 -1 13 -5 14 -7 1 -15 -13 -9 -13 -10 0 -10 11 0 12 -3 3 -8 -15 -9
-25 -90 -12 -97 12 -8 12 -45 0 -45 -14 0 -9 -39 6 -44 7 -3 13 -1 13 5 0 6 4
8 10 4 5 -3 0 -15 -12 -27 -20 -20 -20 -22 -4 -34 13 -9 14 -13 4 -17 -8 -4
-7 -6 5 -6 9 -1 17 -6 17 -12 0 -6 -7 -8 -16 -5 -8 3 -13 2 -9 -3 3 -5 -1 -12
-7 -15 -7 -3 0 -2 16 1 25 5 28 3 23 -11 -4 -10 -7 -21 -7 -24 0 -4 -4 -1 -8
6 -11 17 -72 -4 -72 -25 0 -8 5 -11 12 -7 6 4 4 -3 -5 -17 -20 -28 -24 -60 -5
-41 16 16 28 15 28 -3 0 -8 4 -15 10 -15 5 0 7 -7 3 -16 -5 -13 -7 -13 -14 -2
-5 7 -9 9 -9 3 1 -5 7 -18 14 -28 10 -13 12 -27 6 -47 -9 -31 8 -48 28 -28 7
7 13 -1 18 -28 5 -22 7 -43 6 -47 -1 -5 2 -6 8 -2 5 3 10 -2 11 -12 0 -11 3
-13 6 -5 2 6 9 10 14 7 8 -6 -16 -53 -34 -66 -5 -4 -3 -15 4 -26 10 -17 9 -25
-9 -51 -12 -16 -22 -36 -22 -44 0 -8 -5 -19 -12 -26 -9 -9 -8 -12 6 -12 9 0
15 -4 11 -9 -3 -5 5 -11 17 -13 12 -2 23 -9 26 -17 3 -8 0 -11 -5 -8 -6 4 -13
-7 -17 -24 -3 -17 -9 -28 -13 -26 -5 2 -17 -5 -28 -16 -11 -11 -15 -17 -9 -14
22 13 70 -4 71 -24 1 -10 -3 -19 -8 -19 -6 0 -6 -7 1 -19 5 -11 7 -27 4 -35
-4 -10 -1 -16 7 -16 10 0 11 -2 2 -8 -7 -4 -9 -13 -4 -21 16 -25 27 -3 29 59
1 39 -1 59 -8 55 -5 -3 -10 1 -10 9 0 9 6 16 13 16 8 0 7 4 -3 10 -10 6 -11
10 -2 10 20 0 14 20 -10 31 l-23 10 22 -5 23 -4 0 520 c0 414 -2 518 -12 512
-10 -6 -11 -4 0 7 6 7 12 26 12 41 0 27 -2 28 -50 28 -55 0 -64 -15 -35 -54
20 -26 19 -42 -1 -22 -19 19 -22 20 -56 2 -25 -13 -29 -13 -37 1 -7 14 -9 14
-15 -4 -4 -11 -3 -28 0 -38 6 -15 4 -16 -14 -6 -28 15 -36 31 -23 44 6 6 11
19 11 29 0 21 4 22 30 8 14 -7 19 -5 23 10 3 10 2 21 -1 24 -3 3 -65 6 -139 6
-109 0 -135 -3 -139 -15 -4 -8 -10 -13 -14 -10 -12 7 -23 -32 -14 -46 4 -7 3
-9 -4 -5 -6 3 -13 -3 -17 -14 -8 -24 -25 -27 -25 -4 0 8 -5 12 -10 9 -6 -4 -7
-11 -4 -17 5 -7 2 -8 -5 -4 -7 5 -10 10 -7 13 3 4 -3 13 -13 22 -10 9 -23 30
-29 46 -6 17 -11 24 -11 18 -1 -7 -6 -13 -12 -13 -5 0 -7 5 -4 10 3 6 0 10 -7
10 -8 0 -14 -9 -15 -21 -1 -12 -10 -27 -20 -35 -14 -11 -15 -13 -3 -14 13 0
13 -1 0 -10 -24 -16 -31 -12 -26 15 5 29 -2 32 -20 8 -12 -16 -12 -16 -7 5 3
12 13 22 23 22 10 0 20 7 24 15 4 12 -3 15 -32 14 -30 0 -33 -2 -17 -9z m589
-91 c-4 -8 0 -9 15 -4 12 3 21 2 21 -4 0 -5 -18 -9 -40 -9 -43 0 -54 14 -17
21 12 2 23 5 25 6 2 0 0 -4 -4 -10z m76 -8 c0 -5 -7 -11 -15 -15 -9 -3 -15 0
-15 9 0 8 7 15 15 15 8 0 15 -4 15 -9z m-158 -57 c-4 -36 -8 -40 -25 -25 -19
15 -10 60 11 56 12 -2 16 -10 14 -31z m-448 17 c3 -4 0 -15 -7 -24 -15 -21
-43 -6 -34 17 7 17 32 22 41 7z m451 -78 c-2 -10 -4 -20 -4 -22 -1 -3 -6 0
-12 6 -6 6 -8 16 -5 22 11 17 25 13 21 -6z m135 -88 c0 -8 -4 -15 -10 -15 -5
0 -10 7 -10 15 0 8 5 15 10 15 6 0 10 -7 10 -15z m-782 -117 c-2 -6 -10 -14
-16 -16 -7 -2 -10 2 -6 12 7 18 28 22 22 4z m5 -34 c8 -8 -10 -44 -22 -44 -5
0 -6 11 -3 25 4 25 13 31 25 19z m26 -69 c2 -3 -5 -5 -17 -5 -11 0 -24 -4 -27
-10 -10 -16 -22 -12 -28 9 -4 17 -1 19 31 15 20 -2 38 -7 41 -9z m748 -7 c-3
-8 -6 -5 -6 6 -1 11 2 17 5 13 3 -3 4 -12 1 -19z m-793 -44 c3 -8 2 -12 -4 -9
-6 3 -10 10 -10 16 0 14 7 11 14 -7z m396 -19 c0 -28 -4 -35 -19 -35 -10 0
-22 7 -25 16 -3 8 -2 13 2 10 4 -2 14 -1 22 5 10 5 11 9 3 9 -7 0 -10 7 -7 15
11 27 24 16 24 -20z m75 10 c17 -8 15 -10 -14 -13 -18 -2 -38 1 -44 7 -8 8 -6
11 6 11 9 0 17 6 17 13 0 8 3 8 8 1 4 -6 16 -14 27 -19z m-425 -35 c0 -5 -5
-10 -11 -10 -5 0 -7 5 -4 10 3 6 8 10 11 10 2 0 4 -4 4 -10z m8 -65 c-2 -25 0
-45 4 -45 5 0 8 -34 8 -75 0 -74 0 -75 -20 -58 -23 20 -26 41 -6 49 15 6 16
21 3 42 -5 7 -3 12 4 12 7 0 5 8 -6 20 -10 11 -15 20 -12 20 4 0 2 11 -3 25
-6 16 -6 25 0 25 6 0 10 7 10 15 0 8 5 15 11 15 7 0 10 -17 7 -45z m255 25 c3
-11 3 -20 1 -20 -2 0 -8 9 -14 20 -6 11 -7 20 -2 20 6 0 12 -9 15 -20z m110
-17 c-3 -7 -9 -11 -13 -8 -4 3 -13 -2 -20 -10 -7 -8 -18 -15 -24 -15 -6 0 -3
7 7 14 18 14 24 32 7 21 -5 -3 -10 -2 -10 4 0 6 13 9 29 8 18 -1 27 -7 24 -14z
m387 3 c0 -3 -4 -8 -10 -11 -5 -3 -10 -1 -10 4 0 6 5 11 10 11 6 0 10 -2 10
-4z m-520 -31 c0 -8 -5 -15 -11 -15 -5 0 -8 -4 -5 -8 3 -5 -1 -9 -7 -9 -7 0
-14 11 -15 24 -1 17 3 23 18 23 11 0 20 -7 20 -15z m-133 -27 c-3 -8 -6 -5 -6
6 -1 11 2 17 5 13 3 -3 4 -12 1 -19z m313 8 c0 -3 -4 -8 -10 -11 -5 -3 -10 -1
-10 4 0 6 5 11 10 11 6 0 10 -2 10 -4z m101 -20 c8 5 9 3 4 -6 -6 -10 -2 -11
18 -7 22 6 24 4 19 -15 -3 -12 -7 -17 -10 -10 -2 6 -12 12 -22 12 -10 0 -22 5
-25 10 -4 6 -10 8 -15 5 -4 -3 -16 -2 -26 2 -16 6 -16 7 2 14 10 3 24 2 31 -3
7 -5 18 -6 24 -2z m-310 -19 c-1 -12 -15 -9 -19 4 -3 6 1 10 8 8 6 -3 11 -8
11 -12z m121 -32 c-5 -27 12 -35 22 -10 3 8 13 15 23 14 11 0 13 -3 6 -6 -14
-5 -18 -24 -5 -22 20 3 42 -2 42 -10 0 -5 -9 -19 -20 -32 -14 -17 -18 -19 -14
-6 5 13 2 16 -9 11 -8 -3 -18 -1 -22 5 -3 6 -16 11 -28 12 -12 0 -17 3 -11 5
6 2 8 18 6 34 -2 17 0 30 5 30 6 0 8 -11 5 -25z m138 4 c0 -10 -27 -19 -34
-12 -11 12 -6 19 14 19 11 0 20 -3 20 -7z m130 -14 c0 -8 -2 -15 -4 -15 -2 0
-6 7 -10 15 -3 8 -1 15 4 15 6 0 10 -7 10 -15z m-117 -18 c3 -8 2 -19 -3 -26
-5 -10 -9 -8 -14 4 -3 9 -6 21 -6 26 0 14 17 11 23 -4z m-183 -42 c0 -5 -5 -3
-10 5 -5 8 -10 20 -10 25 0 6 5 3 10 -5 5 -8 10 -19 10 -25z m-103 -5 c10 -11
23 -20 29 -20 7 0 15 -6 18 -12 5 -10 7 -10 12 0 6 14 24 16 24 3 0 -5 -13
-14 -30 -21 -16 -7 -27 -16 -24 -21 3 -5 -1 -9 -8 -10 -9 0 -10 -2 -1 -5 7 -3
9 -12 6 -20 -4 -10 2 -14 20 -14 16 0 27 6 29 18 3 14 5 13 10 -5 5 -21 3 -23
-27 -23 -19 0 -37 -5 -40 -11 -8 -12 -34 19 -35 41 0 8 -9 21 -19 27 -13 8
-19 22 -17 40 4 54 24 67 53 33z m-167 -59 c0 -6 -4 -12 -8 -15 -5 -3 -9 1 -9
9 0 8 4 15 9 15 4 0 8 -4 8 -9z m319 -15 c6 -4 11 -18 11 -32 0 -15 -4 -23
-10 -19 -6 4 -8 12 -4 18 3 7 -2 3 -11 -8 -10 -12 -15 -14 -13 -5 6 19 -21 50
-38 43 -8 -3 -14 1 -14 10 0 12 7 13 34 7 18 -4 39 -10 45 -14z m9 -93 c2 -9
-7 -13 -27 -13 -31 0 -42 14 -18 23 19 8 40 3 45 -10z m-21 -69 c-3 -3 -12 -4
-19 -1 -8 3 -5 6 6 6 11 1 17 -2 13 -5z m-287 -158 c0 -3 -4 -8 -10 -11 -5 -3
-10 -1 -10 4 0 6 5 11 10 11 6 0 10 -2 10 -4z m485 -39 c3 -14 1 -28 -4 -31
-11 -7 -30 44 -23 62 6 19 22 1 27 -31z m-228 -59 c-3 -8 -6 -5 -6 6 -1 11 2
17 5 13 3 -3 4 -12 1 -19z m-197 -34 c0 -9 -5 -14 -12 -12 -18 6 -21 28 -4 28
9 0 16 -7 16 -16z m275 -29 c-16 -7 -34 -11 -38 -8 -4 3 -16 -1 -25 -9 -15
-12 -16 -11 -4 4 12 15 39 24 82 26 8 0 2 -6 -15 -13z m-348 -32 c-3 -10 -5
-4 -5 12 0 17 2 24 5 18 2 -7 2 -21 0 -30z m413 -88 c0 -8 -4 -15 -10 -15 -5
0 -7 7 -4 15 4 8 8 15 10 15 2 0 4 -7 4 -15z"/>
<path d="M1451 19138 c-1 -18 -2 -46 -3 -63 -2 -21 1 -30 12 -30 15 0 23 55
14 103 -7 33 -22 27 -23 -10z"/>
<path d="M9171 19143 c4 -21 -2 -33 -17 -33 -8 0 -12 -5 -9 -10 4 -6 14 -9 23
-8 17 3 18 -10 7 -52 -2 -8 -4 -23 -4 -32 -1 -10 -8 -18 -16 -18 -8 0 -15 -4
-15 -10 0 -5 6 -7 14 -4 8 3 16 -4 20 -19 4 -19 12 -24 33 -23 16 1 33 -2 38
-5 6 -4 10 3 10 17 0 28 -10 31 -24 7 -8 -15 -12 -16 -23 -4 -7 8 -8 11 -2 8
14 -8 37 17 26 28 -4 5 1 5 10 2 12 -4 20 3 29 26 7 18 14 35 16 39 6 10 -56
40 -68 33 -16 -10 -40 16 -34 36 3 9 1 20 -5 24 -6 4 -10 3 -9 -2z m70 -96
c-10 -9 -11 -8 -5 6 3 10 9 15 12 12 3 -3 0 -11 -7 -18z"/>
<path d="M9491 19134 c0 -11 3 -14 6 -6 3 7 2 16 -1 19 -3 4 -6 -2 -5 -13z"/>
<path d="M690 19105 c7 -9 15 -13 17 -11 7 7 -7 26 -19 26 -6 0 -6 -6 2 -15z"/>
<path d="M1207 19109 c7 -7 15 -10 18 -7 3 3 -2 9 -12 12 -14 6 -15 5 -6 -5z"/>
<path d="M10570 19110 c0 -5 5 -10 10 -10 6 0 10 5 10 10 0 6 -4 10 -10 10 -5
0 -10 -4 -10 -10z"/>
<path d="M1537 19096 c-3 -8 -2 -27 3 -43 8 -26 8 -25 9 15 1 43 -3 52 -12 28z"/>
<path d="M9475 19100 c-3 -5 -5 -10 -3 -11 27 -6 38 -5 42 7 6 16 -29 20 -39
4z"/>
<path d="M438 19093 c6 -2 18 -2 25 0 6 3 1 5 -13 5 -14 0 -19 -2 -12 -5z"/>
<path d="M728 19093 c7 -3 16 -2 19 1 4 3 -2 6 -13 5 -11 0 -14 -3 -6 -6z"/>
<path d="M780 19090 c0 -5 5 -10 11 -10 5 0 7 5 4 10 -3 6 -8 10 -11 10 -2 0
-4 -4 -4 -10z"/>
<path d="M815 19090 c-3 -5 -2 -10 4 -10 5 0 13 5 16 10 3 6 2 10 -4 10 -5 0
-13 -4 -16 -10z"/>
<path d="M9850 19090 c0 -5 5 -10 10 -10 6 0 10 5 10 10 0 6 -4 10 -10 10 -5
0 -10 -4 -10 -10z"/>
<path d="M4207 19084 c-8 -8 3 -34 14 -34 5 0 9 9 9 20 0 19 -11 26 -23 14z"/>
<path d="M9320 19075 c-1 -11 -2 -26 -1 -33 1 -8 -2 -19 -8 -26 -5 -6 -6 -18
-2 -25 5 -8 3 -24 -5 -39 -12 -23 -11 -29 3 -45 17 -18 18 -18 24 0 3 10 3 28
-2 39 -4 12 -5 24 -3 27 3 3 6 21 8 41 1 19 5 38 9 42 10 11 9 26 -2 20 -5 -4
-12 0 -14 6 -3 8 -6 4 -7 -7z"/>
<path d="M4672 19067 c-7 -8 -7 -18 -2 -27 5 -8 5 -21 0 -29 -4 -9 -6 -70 -4
-135 3 -66 1 -127 -2 -135 -11 -24 -11 -60 -1 -58 12 2 29 -52 23 -75 -2 -10
0 -18 5 -18 5 0 7 -22 4 -50 -3 -27 0 -52 5 -55 6 -4 8 -11 5 -16 -4 -5 0 -15
8 -23 12 -12 14 -9 15 20 1 19 -4 34 -10 34 -7 0 -7 4 0 13 5 6 9 29 8 49 -1
20 1 35 6 32 4 -3 8 -13 8 -24 0 -10 7 -21 16 -24 24 -9 26 -8 14 14 -8 16 -8
22 3 26 28 10 14 40 -17 35 -5 -1 -2 9 8 23 19 30 20 40 4 30 -7 -4 -2 5 12
20 19 21 24 36 21 66 -2 30 1 40 13 40 24 0 30 -19 32 -105 2 -44 3 -84 3 -88
2 -15 21 4 21 19 0 9 7 22 15 30 13 13 18 13 41 -3 27 -18 54 -68 54 -101 0
-11 7 -25 15 -32 12 -10 15 -10 15 3 0 9 -4 19 -10 22 -14 9 -12 45 3 45 8 0
7 4 -3 10 -11 7 -11 10 -2 10 9 0 10 5 3 18 -7 14 -6 25 6 43 16 23 16 23 0
10 -20 -16 -22 -15 -31 17 -8 23 8 32 17 10 3 -7 6 0 6 15 1 16 -3 26 -9 22
-5 -3 -10 3 -10 14 0 11 5 23 10 26 17 11 11 25 -11 25 -15 0 -19 -4 -15 -16
5 -14 4 -15 -9 -4 -16 13 -21 42 -6 38 5 -2 8 1 8 7 -1 5 -8 10 -14 11 -13 2
-17 -13 -13 -53 1 -13 -3 -23 -9 -23 -13 0 -12 -1 -17 63 -2 36 1 47 12 47 8
0 12 5 9 10 -4 6 -10 8 -14 6 -4 -3 -7 5 -6 17 1 12 0 28 -3 35 -5 14 -41 16
-62 2 -12 -8 -12 -10 3 -16 16 -6 16 -8 -4 -25 -14 -12 -17 -19 -9 -19 9 0 7
-6 -6 -16 -13 -11 -14 -14 -3 -11 12 4 14 -1 11 -25 -3 -17 -7 -26 -11 -21 -3
5 -19 16 -34 26 -28 18 -29 41 -1 30 12 -4 13 -1 4 23 -6 16 -15 33 -21 40
-14 17 -18 73 -5 78 7 3 7 5 -1 5 -7 1 -13 11 -13 24 0 18 -2 19 -10 7 -7 -12
-10 -12 -10 -1 0 7 -6 11 -15 7 -9 -3 -15 0 -15 9 0 18 -14 19 -28 2z m248
-335 c0 -15 -2 -15 -10 -2 -13 20 -13 33 0 25 6 -3 10 -14 10 -23z m-5 -42 c3
-5 2 -10 -4 -10 -5 0 -13 5 -16 10 -3 6 -2 10 4 10 5 0 13 -4 16 -10z"/>
<path d="M7005 19061 c-3 -5 -1 -12 5 -16 5 -3 10 1 10 9 0 18 -6 21 -15 7z"/>
<path d="M9470 19050 c0 -11 0 -23 -1 -27 0 -4 5 -9 12 -12 6 -2 9 1 5 7 -3 6
-2 13 4 17 15 10 12 35 -5 35 -8 0 -15 -9 -15 -20z"/>
<path d="M10067 19063 c-4 -3 -7 -11 -7 -17 0 -6 5 -5 12 2 6 6 9 14 7 17 -3
3 -9 2 -12 -2z"/>
<path d="M426 19043 c-6 -14 -5 -15 5 -6 7 7 10 15 7 18 -3 3 -9 -2 -12 -12z"/>
<path d="M5077 19053 c-4 -3 -7 -11 -7 -17 0 -6 5 -5 12 2 6 6 9 14 7 17 -3 3
-9 2 -12 -2z"/>
<path d="M796 19035 c4 -8 10 -15 15 -15 4 0 6 7 3 15 -4 8 -10 15 -15 15 -4
0 -6 -7 -3 -15z"/>
<path d="M4833 19035 c4 -9 7 -25 7 -35 0 -21 26 -33 47 -22 13 8 13 10 -1 15
-9 4 -16 13 -16 21 0 9 -10 20 -22 27 -18 10 -20 9 -15 -6z"/>
<path d="M4980 19026 c0 -31 9 -56 21 -56 5 0 9 7 9 15 0 8 -4 15 -9 15 -5 0
-7 8 -4 19 3 10 0 22 -6 25 -7 5 -11 -2 -11 -18z"/>
<path d="M9103 19025 c2 -15 10 -20 30 -20 26 -1 27 0 11 12 -9 7 -20 10 -25
8 -4 -3 -10 1 -13 7 -3 7 -5 4 -3 -7z"/>
<path d="M4216 19017 c3 -10 9 -15 12 -12 3 3 0 11 -7 18 -10 9 -11 8 -5 -6z"/>
<path d="M827 19003 c-3 -5 -8 -23 -12 -42 -6 -30 -5 -33 6 -20 8 8 15 26 16
42 1 27 -2 33 -10 20z"/>
<path d="M9466 18985 c-3 -8 -1 -15 4 -15 6 0 10 7 10 15 0 8 -2 15 -4 15 -2
0 -6 -7 -10 -15z"/>
<path d="M3938 18965 c-3 -14 -1 -28 3 -31 5 -3 9 9 9 25 0 38 -6 40 -12 6z"/>
<path d="M6354 18982 c-17 -11 -22 -34 -13 -64 5 -18 3 -28 -4 -31 -9 -3 -9
-8 0 -19 7 -8 9 -19 5 -23 -4 -5 -1 -5 6 -1 6 4 12 18 12 31 0 13 4 26 10 30
6 4 5 15 -2 30 -8 19 -8 28 2 40 13 16 3 20 -16 7z"/>
<path d="M6996 18980 c-17 -6 -15 -8 14 -18 41 -15 40 -15 40 4 0 10 -6 14
-14 11 -8 -3 -16 -2 -18 2 -2 5 -12 5 -22 1z"/>
<path d="M1280 18980 c-8 -26 -7 -41 2 -32 6 6 8 16 5 24 -3 7 -6 11 -7 8z"/>
<path d="M5190 18970 c0 -5 7 -10 15 -10 8 0 15 5 15 10 0 6 -7 10 -15 10 -8
0 -15 -4 -15 -10z"/>
<path d="M6248 18973 c7 -3 16 -2 19 1 4 3 -2 6 -13 5 -11 0 -14 -3 -6 -6z"/>
<path d="M4480 18955 c0 -8 4 -15 10 -15 5 0 7 7 4 15 -4 8 -8 15 -10 15 -2 0
-4 -7 -4 -15z"/>
<path d="M4206 18933 c3 -16 8 -34 10 -42 2 -7 -1 -20 -8 -29 -11 -13 -10 -14
10 -3 12 7 20 16 17 21 -3 4 1 10 7 13 10 4 11 7 1 18 -7 7 -13 21 -13 31 0
10 -7 18 -15 18 -12 0 -14 -7 -9 -27z"/>
<path d="M4992 18894 c-2 -54 0 -64 14 -64 10 0 14 -5 10 -15 -3 -8 -1 -15 5
-15 5 0 7 -11 3 -25 -5 -19 -2 -25 10 -25 10 0 13 -6 10 -15 -4 -8 -2 -15 3
-15 5 0 7 -19 5 -42 -4 -34 -2 -40 11 -35 13 5 15 1 11 -21 -5 -30 8 -58 24
-48 6 4 7 19 1 43 -5 21 -9 57 -9 80 0 23 -4 44 -9 48 -6 3 -13 27 -16 53 -7
43 -49 147 -64 157 -4 2 -8 -25 -9 -61z"/>
<path d="M5104 18951 c3 -5 -1 -14 -9 -21 -11 -9 -12 -17 -4 -31 5 -11 7 -29
4 -39 -4 -12 -2 -20 4 -20 6 0 11 -9 11 -20 0 -15 6 -19 25 -18 30 3 30 6 8
38 -10 14 -19 43 -19 65 -2 55 -3 55 -15 55 -5 0 -8 -4 -5 -9z"/>
<path d="M6115 18950 c-3 -5 -1 -10 4 -10 6 0 11 5 11 10 0 6 -2 10 -4 10 -3
0 -8 -4 -11 -10z"/>
<path d="M6230 18949 c0 -5 5 -7 10 -4 6 3 10 8 10 11 0 2 -4 4 -10 4 -5 0
-10 -5 -10 -11z"/>
<path d="M9125 18940 c20 -22 39 -27 32 -7 -2 6 -10 11 -16 10 -6 -2 -11 2
-11 7 0 6 -5 10 -12 10 -6 0 -3 -9 7 -20z"/>
<path d="M760 18933 c0 -7 6 -13 14 -13 8 0 16 6 19 13 3 8 -3 13 -14 13 -11
0 -19 -6 -19 -13z"/>
<path d="M5187 18944 c-10 -10 -9 -26 2 -20 5 3 14 -1 21 -9 7 -8 16 -13 20
-10 5 3 7 -3 5 -12 -2 -10 -4 -21 -4 -25 -1 -5 -7 -8 -15 -8 -19 0 -32 -20
-19 -29 17 -11 23 -42 12 -63 -10 -18 -9 -20 6 -15 9 4 18 7 20 7 2 0 1 10 -2
23 -4 17 -3 19 6 11 16 -15 10 -80 -6 -76 -7 1 -13 -2 -13 -8 0 -5 11 -10 24
-10 13 0 26 -6 29 -12 3 -7 4 16 4 52 0 36 2 77 6 93 4 15 3 27 -2 27 -6 0
-14 19 -18 43 -8 37 -12 42 -39 45 -16 2 -33 0 -37 -4z m48 -14 c3 -6 -1 -7
-9 -4 -18 7 -21 14 -7 14 6 0 13 -4 16 -10z"/>
<path d="M4410 18905 c0 -14 2 -25 4 -25 2 0 6 11 8 25 3 14 1 25 -3 25 -5 0
-9 -11 -9 -25z"/>
<path d="M6117 18910 c3 -11 9 -20 15 -20 5 0 4 9 -2 20 -6 11 -12 20 -14 20
-2 0 -2 -9 1 -20z"/>
<path d="M6307 18911 c-3 -14 -1 -18 9 -14 16 6 18 19 5 27 -5 3 -11 -3 -14
-13z"/>
<path d="M1385 18909 c-4 -6 -5 -12 -2 -15 2 -3 7 2 10 11 7 17 1 20 -8 4z"/>
<path d="M4480 18895 c0 -25 14 -34 24 -16 8 12 -3 41 -15 41 -5 0 -9 -11 -9
-25z"/>
<path d="M4950 18905 c-10 -12 -10 -15 1 -15 12 0 12 -2 0 -9 -9 -6 -10 -11
-2 -15 12 -8 20 8 18 37 -1 21 -1 21 -17 2z"/>
<path d="M3941 18898 c-1 -10 -5 -18 -11 -18 -9 0 -8 -8 6 -47 5 -15 8 -13 15
10 4 16 4 38 -1 50 -7 18 -9 18 -9 5z"/>
<path d="M5372 18898 c-7 -7 -12 -21 -12 -32 1 -20 2 -19 14 3 9 16 16 20 20
12 4 -7 2 -18 -4 -26 -7 -8 -10 -15 -6 -15 3 0 1 -11 -4 -25 -8 -20 -7 -23 7
-18 12 5 14 3 8 -7 -5 -9 -4 -11 3 -6 13 8 16 83 6 110 -7 19 -16 20 -32 4z"/>
<path d="M6155 18900 c3 -5 1 -10 -4 -10 -6 0 -11 -7 -11 -15 0 -9 6 -12 15
-9 17 7 21 44 4 44 -5 0 -7 -4 -4 -10z"/>
<path d="M9131 18901 c-11 -7 -11 -9 0 -13 12 -4 12 -8 1 -20 -8 -10 -9 -19
-3 -22 5 -3 12 8 16 25 8 35 5 41 -14 30z"/>
<path d="M787 18893 c-4 -3 -7 -11 -7 -17 0 -6 5 -5 12 2 6 6 9 14 7 17 -3 3
-9 2 -12 -2z"/>
<path d="M5205 18890 c3 -5 8 -10 11 -10 2 0 4 5 4 10 0 6 -5 10 -11 10 -5 0
-7 -4 -4 -10z"/>
<path d="M1380 18865 c0 -8 2 -15 4 -15 2 0 6 7 10 15 3 8 1 15 -4 15 -6 0
-10 -7 -10 -15z"/>
<path d="M4341 18864 c0 -11 3 -14 6 -6 3 7 2 16 -1 19 -3 4 -6 -2 -5 -13z"/>
<path d="M4367 18866 c-4 -10 -1 -13 9 -9 7 3 14 9 14 14 0 14 -17 10 -23 -5z"/>
<path d="M5748 18874 c-13 -12 -8 -58 7 -78 8 -11 18 -17 21 -13 4 4 2 12 -4
19 -6 7 -12 28 -14 46 -2 19 -6 30 -10 26z"/>
<path d="M4168 18845 c-3 -14 -2 -28 2 -30 11 -7 21 38 11 48 -5 5 -11 -3 -13
-18z"/>
<path d="M4485 18851 c-3 -6 -4 -23 -3 -38 1 -16 -1 -34 -6 -41 -4 -7 -1 -12
8 -12 12 0 16 11 16 50 0 49 -3 59 -15 41z"/>
<path d="M4225 18841 c-3 -5 -1 -12 5 -16 5 -3 10 1 10 9 0 18 -6 21 -15 7z"/>
<path d="M10665 18830 c3 -5 8 -10 11 -10 2 0 4 5 4 10 0 6 -5 10 -11 10 -5 0
-7 -4 -4 -10z"/>
<path d="M290 18820 c-9 -6 -10 -10 -3 -10 6 0 15 5 18 10 8 12 4 12 -15 0z"/>
<path d="M684 18819 c-4 -7 -3 -9 4 -5 5 3 13 0 15 -6 4 -9 6 -10 6 -1 1 17
-16 25 -25 12z"/>
<path d="M1318 18802 c-3 -11 0 -19 7 -19 7 0 10 8 7 19 -2 10 -6 18 -7 18 -1
0 -5 -8 -7 -18z"/>
<path d="M4420 18801 c0 -11 -4 -23 -10 -26 -18 -11 -11 -23 11 -18 12 3 18
11 15 19 -3 8 -1 14 4 14 5 0 7 7 4 15 -9 21 -24 19 -24 -4z"/>
<path d="M9152 18800 c0 -14 2 -19 5 -12 2 6 2 18 0 25 -3 6 -5 1 -5 -13z"/>
<path d="M1199 18775 c-1 -14 -2 -30 -3 -37 -1 -6 4 -13 11 -15 8 -3 11 9 10
36 -1 44 -16 57 -18 16z"/>
<path d="M4229 18788 c-6 -29 -6 -64 0 -81 7 -18 9 -12 12 26 3 27 1 51 -3 53
-5 3 -8 4 -9 2z"/>
<path d="M6155 18780 c-3 -5 -2 -10 4 -10 5 0 13 5 16 10 3 6 2 10 -4 10 -5 0
-13 -4 -16 -10z"/>
<path d="M4168 18773 c7 -3 16 -2 19 1 4 3 -2 6 -13 5 -11 0 -14 -3 -6 -6z"/>
<path d="M5110 18765 c-10 -13 -9 -15 9 -15 20 0 21 -2 7 -15 -13 -14 -13 -20
6 -55 12 -22 24 -40 28 -40 3 0 6 16 7 35 1 19 -3 35 -8 35 -5 0 -9 8 -9 18 0
9 -7 25 -14 35 -12 15 -15 15 -26 2z"/>
<path d="M5745 18760 c-3 -6 1 -7 9 -4 18 7 21 14 7 14 -6 0 -13 -4 -16 -10z"/>
<path d="M290 18745 c7 -9 15 -13 17 -11 7 7 -7 26 -19 26 -6 0 -6 -6 2 -15z"/>
<path d="M4177 18753 c-9 -17 -8 -141 3 -148 11 -6 12 4 12 93 0 52 -5 72 -15
55z"/>
<path d="M5225 18740 c-3 -5 -1 -10 4 -10 6 0 11 5 11 10 0 6 -2 10 -4 10 -3
0 -8 -4 -11 -10z"/>
<path d="M4423 18723 c-3 -10 -8 -21 -10 -25 -2 -5 0 -8 5 -8 5 0 14 11 20 25
7 16 8 25 1 25 -5 0 -12 -8 -16 -17z"/>
<path d="M4562 18720 c0 -14 2 -19 5 -12 2 6 2 18 0 25 -3 6 -5 1 -5 -13z"/>
<path d="M6310 18730 c-9 -6 -10 -10 -3 -10 6 0 15 5 18 10 8 12 4 12 -15 0z"/>
<path d="M5752 18695 c0 -22 2 -34 5 -27 2 6 9 10 14 6 5 -3 9 0 9 5 0 6 -4
11 -9 11 -5 0 -12 10 -14 23 -2 12 -5 4 -5 -18z"/>
<path d="M1124 18664 c3 -9 6 -23 6 -32 0 -12 3 -13 11 -5 13 13 3 53 -13 53
-5 0 -7 -7 -4 -16z"/>
<path d="M5380 18670 c0 -5 5 -10 10 -10 6 0 10 5 10 10 0 6 -4 10 -10 10 -5
0 -10 -4 -10 -10z"/>
<path d="M5271 18611 c-1 -34 2 -42 11 -33 8 8 8 20 1 44 l-11 33 -1 -44z"/>
<path d="M5753 18629 c3 -9 0 -22 -6 -28 -8 -8 -8 -11 1 -11 19 0 27 30 12 43
-10 9 -12 9 -7 -4z"/>
<path d="M621 18579 c-11 -18 -11 -23 1 -30 12 -8 4 -13 -14 -10 -18 3 -6 -27
12 -32 14 -4 20 0 20 13 0 9 3 32 6 49 7 36 -5 41 -25 10z"/>
<path d="M4860 18525 c0 -8 4 -15 8 -15 5 0 9 7 9 15 0 8 -4 15 -9 15 -4 0 -8
-7 -8 -15z"/>
<path d="M592 18484 c-7 -8 -8 -14 -3 -14 10 0 25 19 20 25 -2 1 -10 -3 -17
-11z"/>
<path d="M950 18308 c0 -16 5 -28 10 -28 13 0 13 20 0 40 -8 12 -10 9 -10 -12z"/>
<path d="M9834 18306 c0 -13 4 -22 9 -19 10 6 9 31 -2 37 -5 3 -8 -5 -7 -18z"/>
<path d="M9832 18215 c1 -14 6 -24 11 -22 5 1 8 6 8 10 -1 4 -1 14 -1 22 0 8
-4 15 -10 15 -5 0 -9 -11 -8 -25z"/>
<path d="M4450 18196 c-8 -30 4 -146 15 -149 6 -1 11 17 13 41 2 23 -1 42 -7
42 -5 0 -11 19 -13 43 -2 23 -5 34 -8 23z"/>
<path d="M1115 18150 c-4 -11 -10 -18 -15 -15 -5 3 -11 1 -15 -5 -3 -5 0 -10
9 -10 8 0 21 -3 30 -6 13 -5 16 1 16 25 0 35 -15 42 -25 11z"/>
<path d="M3827 18123 c-4 -3 -7 -13 -7 -22 1 -13 3 -13 11 2 11 19 8 33 -4 20z"/>
<path d="M10040 18110 c0 -19 3 -21 12 -12 9 9 9 15 0 24 -9 9 -12 7 -12 -12z"/>
<path d="M1119 18060 c-1 -8 0 -19 1 -25 2 -5 2 -24 1 -41 -1 -18 4 -34 11
-37 10 -3 12 8 10 47 -4 48 -20 89 -23 56z"/>
<path d="M9883 18050 c1 -10 5 -16 9 -14 4 3 8 -3 8 -12 0 -13 3 -15 10 -8 13
13 4 40 -15 48 -9 3 -13 -2 -12 -14z"/>
<path d="M10711 18026 c-10 -11 -9 -14 1 -12 14 2 23 15 15 22 -2 2 -10 -2
-16 -10z"/>
<path d="M9936 17922 c-3 -6 1 -12 9 -16 8 -3 15 -12 15 -21 0 -8 5 -15 10
-15 15 0 12 15 -9 39 -11 12 -22 18 -25 13z"/>
<path d="M10660 17900 c8 -5 11 -10 6 -10 -6 0 0 -10 13 -21 17 -16 26 -18 34
-10 6 6 8 11 4 11 -4 0 -3 9 3 20 9 16 8 20 -5 20 -8 0 -15 -5 -15 -10 0 -7
-6 -7 -19 0 -25 13 -41 13 -21 0z"/>
<path d="M9932 17883 c-6 -2 -10 -8 -8 -12 3 -4 1 -13 -5 -21 -7 -13 -9 -12
-9 3 0 9 -5 17 -10 17 -7 0 -7 -7 0 -20 6 -11 8 -26 4 -33 -4 -6 2 -4 13 6 11
9 22 15 24 13 2 -2 4 9 5 25 1 16 1 29 0 28 -1 0 -7 -3 -14 -6z"/>
<path d="M10500 17813 c0 -13 5 -23 10 -23 13 0 13 11 0 30 -8 12 -10 11 -10
-7z"/>
<path d="M9910 17734 c0 -8 5 -12 10 -9 6 4 8 11 5 16 -9 14 -15 11 -15 -7z"/>
<path d="M9880 17706 c0 -2 7 -7 16 -10 8 -3 12 -2 9 4 -6 10 -25 14 -25 6z"/>
<path d="M10008 17343 c7 -3 16 -2 19 1 4 3 -2 6 -13 5 -11 0 -14 -3 -6 -6z"/>
<path d="M3355 17080 c-3 -5 -16 -11 -28 -11 -17 -1 -18 -2 -4 -6 72 -19 -46
-22 -600 -17 -340 3 -620 6 -623 6 -49 2 -60 -3 -60 -27 l0 -25 148 -2 c81 -1
165 -3 187 -4 227 -12 3471 -21 5403 -15 415 1 422 1 422 21 0 20 -7 20 -777
22 -428 1 -987 2 -1243 4 -487 2 -813 3 -1215 4 -132 0 -512 2 -845 5 -333 2
-629 5 -657 5 -48 0 -53 2 -53 23 0 17 -2 19 -9 7 -6 -8 -8 -17 -6 -20 2 -3
-7 -7 -21 -8 -15 -1 -24 4 -24 12 0 10 7 12 23 8 20 -5 21 -4 8 11 -16 20 -18
20 -26 7z"/>
<path d="M1320 17040 c0 -17 6 -20 48 -20 26 0 111 -2 190 -4 141 -4 143 -4
140 18 -3 20 -8 21 -190 24 -183 3 -188 2 -188 -18z"/>
<path d="M8580 17019 c-25 -3 -39 -7 -31 -7 7 -1 11 -8 8 -15 -4 -10 31 -12
170 -11 164 2 214 10 183 29 -16 10 -270 13 -330 4z"/>
<path d="M4840 16842 c0 -11 37 -32 44 -25 3 3 -2 12 -12 19 -19 15 -32 18
-32 6z"/>
<path d="M3998 16833 c6 -2 18 -2 25 0 6 3 1 5 -13 5 -14 0 -19 -2 -12 -5z"/>
<path d="M4420 16806 c-9 -12 -8 -15 8 -13 12 0 18 6 15 14 -6 16 -8 16 -23
-1z"/>
<path d="M4175 16800 c3 -5 13 -10 21 -10 8 0 12 5 9 10 -3 6 -13 10 -21 10
-8 0 -12 -4 -9 -10z"/>
<path d="M4285 16803 c-31 -7 -40 -21 -11 -16 15 3 29 9 32 14 3 5 4 8 2 8 -2
-1 -12 -3 -23 -6z"/>
<path d="M1390 16736 c0 -29 15 -35 24 -10 6 15 19 16 101 11 55 -3 95 -2 95
4 0 5 -21 9 -47 9 -27 1 -76 3 -110 6 -62 6 -63 5 -63 -20z"/>
<path d="M1654 16743 c4 -5 23 -8 42 -8 19 0 34 3 34 8 0 4 -19 7 -42 7 -23 0
-38 -3 -34 -7z"/>
<path d="M1795 16740 c-4 -6 46 -10 142 -11 81 0 193 -2 248 -5 55 -2 1423 -6
3040 -8 1617 -2 2888 -1 2825 3 -112 6 -1160 14 -2090 15 -256 1 -471 5 -477
9 -7 5 -13 5 -13 0 0 -4 -96 -7 -212 -5 -117 1 -451 2 -743 0 -638 -2 -913 -1
-1932 6 -518 4 -784 3 -788 -4z"/>
<path d="M8178 16713 c7 -3 16 -2 19 1 4 3 -2 6 -13 5 -11 0 -14 -3 -6 -6z"/>
<path d="M8323 16713 c9 -2 23 -2 30 0 6 3 -1 5 -18 5 -16 0 -22 -2 -12 -5z"/>
<path d="M1397 16660 c-3 -13 -4 -99 -2 -190 2 -91 7 -428 10 -750 4 -322 7
-587 7 -590 4 -65 -6 -300 -12 -285 -5 11 -9 16 -9 10 -1 -5 -6 -3 -11 5 -7
11 -10 11 -10 2 0 -7 10 -23 23 -35 17 -16 22 -28 17 -47 -3 -14 -4 -41 0 -60
3 -19 3 -55 0 -80 l-6 -45 -5 58 c-3 32 -11 63 -18 70 -11 10 -12 -59 -7 -358
3 -203 6 -478 7 -610 1 -132 5 -370 9 -530 5 -159 11 -445 15 -635 3 -190 10
-520 15 -735 6 -214 13 -514 16 -665 4 -151 9 -277 12 -280 5 -5 -7 4190 -13
4200 -1 3 -6 346 -10 763 -7 736 -7 757 11 758 18 0 18 1 0 8 -11 4 -22 16
-26 26 -6 17 -7 16 -13 -5z m13 -2107 c0 -28 -3 -34 -10 -23 -13 20 -13 60 0
60 6 0 10 -17 10 -37z m0 -98 c0 -30 -3 -55 -7 -55 -5 0 -8 25 -8 55 0 30 3
55 8 55 4 0 7 -25 7 -55z m0 -75 c0 -5 -2 -10 -4 -10 -3 0 -8 5 -11 10 -3 6
-1 10 4 10 6 0 11 -4 11 -10z"/>
<path d="M3215 16619 c-22 -3 174 -7 435 -8 261 -2 498 -4 525 -6 28 -1 340
-4 695 -5 740 -2 830 -5 830 -29 0 -15 116 -16 1513 -14 1697 2 1634 2 1646
17 11 13 -159 19 -631 20 -174 1 -314 4 -312 7 2 4 -290 7 -649 8 -358 0 -998
3 -1422 7 -1230 8 -2587 10 -2630 3z"/>
<path d="M4298 14140 c-43 -4 -104 -18 -135 -30 -32 -12 -70 -27 -85 -32 -16
-6 -28 -14 -28 -18 0 -9 -44 -31 -90 -45 -20 -6 -39 -20 -45 -33 -6 -13 -19
-22 -32 -22 -13 0 -27 -9 -34 -22 -7 -13 -29 -43 -50 -68 -20 -25 -51 -75 -68
-112 -27 -58 -32 -81 -33 -151 0 -46 1 -88 4 -93 11 -17 95 -229 108 -271 7
-24 16 -43 20 -43 3 0 16 14 28 30 25 33 75 42 86 15 4 -11 -2 -15 -22 -15
-37 0 -67 -22 -59 -44 8 -20 27 -21 27 -1 0 17 26 20 35 5 4 -6 16 -8 28 -4
20 6 20 6 4 -10 -9 -10 -17 -20 -18 -24 0 -4 -2 -15 -4 -24 -5 -26 33 -68 60
-68 12 0 25 -7 29 -15 3 -9 0 -15 -9 -15 -24 0 -17 -14 15 -32 40 -23 41 -58
2 -58 -15 0 -33 5 -40 12 -6 6 -3 -16 8 -53 36 -123 40 -153 26 -192 -20 -59
-63 -97 -108 -97 -21 0 -38 -4 -38 -10 0 -10 60 -45 73 -42 4 1 7 -5 7 -14 0
-14 1 -14 16 0 18 19 59 31 73 21 7 -4 8 0 4 11 -6 15 -1 14 25 -5 26 -18 32
-19 32 -7 0 9 -7 16 -15 16 -8 0 -15 7 -15 15 0 8 4 15 10 15 5 0 9 3 9 8 -3
19 3 46 8 34 4 -10 8 -10 19 -1 11 9 14 9 14 0 0 -8 5 -9 19 -1 28 14 51 12
51 -4 0 -15 36 -32 55 -27 5 1 7 -1 3 -4 -4 -4 4 -16 17 -27 29 -23 33 -55 8
-60 -15 -3 -15 -5 -3 -9 8 -4 26 4 40 18 21 20 22 23 5 17 -18 -7 -18 -6 -6 9
17 21 47 22 55 2 3 -9 18 -15 36 -15 19 0 29 -4 25 -10 -4 -6 -10 -8 -15 -5
-5 3 -11 1 -15 -5 -3 -5 1 -10 10 -10 9 0 14 -4 10 -10 -3 -5 -13 -6 -21 -3
-14 5 -15 3 -3 -18 7 -13 14 -19 16 -13 2 6 15 9 29 6 20 -4 23 -9 18 -26 -8
-24 -24 -37 -37 -29 -5 3 -8 0 -5 -8 3 -8 11 -14 19 -15 29 -2 31 -4 19 -19
-7 -9 -21 -13 -31 -10 -13 4 -19 1 -19 -8 0 -31 130 -34 203 -5 36 14 74 98
60 133 -9 24 -35 18 -31 -7 2 -15 -3 -24 -14 -26 -23 -4 -23 19 0 44 9 10 16
29 14 42 -5 31 13 27 38 -8 15 -22 20 -39 16 -56 -5 -19 -3 -25 6 -22 8 3 15
28 18 63 5 53 7 58 30 62 56 8 131 116 101 146 -17 17 -13 42 9 62 17 15 20
31 20 94 0 105 -5 116 -57 141 -25 12 -47 29 -50 40 -6 24 -101 42 -158 30
-16 -4 -19 -1 -17 15 2 11 10 27 18 36 8 9 22 51 31 95 28 133 46 134 109 6
20 -42 38 -78 39 -79 1 -2 27 4 59 12 32 8 62 12 68 9 6 -4 9 -69 6 -178 -3
-148 -1 -170 12 -166 8 2 65 6 126 8 103 3 118 1 203 -27 51 -17 109 -31 129
-31 37 0 37 1 15 18 -12 9 -23 31 -25 47 -2 21 -8 30 -20 29 -10 -1 -15 2 -12
7 3 5 -1 9 -9 9 -8 0 -22 9 -32 20 -10 11 -23 19 -29 18 -14 -2 -86 41 -86 52
0 4 -11 5 -25 2 -14 -2 -25 -8 -25 -13 0 -5 -9 -4 -20 3 -23 14 -26 38 -8 56
25 25 153 10 229 -27 21 -11 41 -16 43 -12 11 17 5 385 -5 398 -9 10 -53 13
-194 13 -182 0 -183 0 -178 21 6 21 3 21 -73 18 -76 -4 -79 -3 -82 19 -2 15
-10 22 -26 22 -39 0 -120 -32 -143 -57 -28 -30 -65 -30 -78 0 -8 17 -18 22
-50 22 -22 0 -43 -4 -47 -10 -5 -6 -11 -5 -17 4 -6 10 -17 12 -37 6 -16 -4
-54 -9 -84 -12 -30 -3 -64 -11 -75 -19 -33 -24 -45 -17 -45 26 0 22 -3 39 -7
39 -5 -1 -20 -1 -35 0 -33 1 -36 21 -8 39 l21 13 -21 28 c-11 16 -20 32 -20
35 0 8 65 37 87 39 11 0 20 8 19 17 -1 10 7 14 24 13 14 -1 44 -4 67 -5 22 -2
39 -6 36 -10 -5 -10 40 -6 47 3 3 4 37 1 76 -5 40 -7 81 -9 93 -4 12 4 32 6
44 4 12 -2 33 5 46 15 40 32 68 25 80 -18 6 -21 11 -44 11 -50 0 -7 5 -13 10
-13 6 0 10 7 10 15 0 8 9 30 20 50 11 20 20 44 20 55 0 11 7 20 15 20 8 0 15
-7 15 -15 0 -8 4 -15 9 -15 14 0 23 37 16 63 -5 17 -4 18 4 7 5 -8 13 -12 16
-8 14 14 -31 74 -125 167 -77 77 -114 106 -172 134 -73 35 -146 57 -193 57
-13 0 -27 5 -30 10 -7 11 -31 11 -147 0z m-128 -684 c0 -3 -4 -8 -10 -11 -5
-3 -10 -1 -10 4 0 6 5 11 10 11 6 0 10 -2 10 -4z m1175 -86 c14 -16 15 -20 4
-20 -8 0 -20 5 -27 12 -9 9 -18 9 -37 0 -28 -13 -35 1 -7 17 26 16 47 13 67
-9z m-144 -67 c-9 -17 -10 -17 -16 0 -4 9 -4 25 0 35 6 16 7 16 16 0 7 -12 7
-24 0 -35z m-814 -75 c-2 -13 -4 -5 -4 17 -1 22 1 32 4 23 2 -10 2 -28 0 -40z
m-63 33 c4 -1 6 -8 2 -16 -3 -8 -1 -15 4 -15 6 0 10 -8 10 -19 0 -10 5 -33 11
-50 l12 -33 92 5 c51 2 97 7 103 11 17 10 23 -10 7 -24 -12 -10 -10 -15 12
-36 14 -13 32 -24 38 -24 7 0 15 -7 19 -15 6 -17 -26 -55 -47 -55 -28 0 -61
-49 -62 -93 0 -45 -20 -78 -41 -70 -8 3 -14 15 -14 27 0 16 -2 18 -9 7 -5 -7
-14 -10 -20 -7 -6 4 -11 0 -11 -8 0 -10 -9 -16 -25 -16 -21 0 -25 4 -22 23 2
12 2 16 0 9 -4 -11 -9 -10 -23 3 -16 15 -17 14 -12 -11 l5 -26 -27 27 c-15 15
-29 40 -33 56 -3 16 -11 29 -18 29 -8 0 -19 14 -27 30 -12 28 -21 35 -42 31
-13 -3 -36 20 -30 30 3 5 -1 9 -10 9 -9 0 -17 15 -21 43 -4 23 -12 45 -18 49
-6 4 -12 33 -12 65 0 56 1 58 29 63 25 4 149 5 180 1z m-321 -29 c10 -11 13
-23 8 -31 -7 -10 -13 -8 -29 10 -20 21 -21 39 -3 39 4 0 15 -8 24 -18z m1342
-13 c11 -17 -4 -24 -24 -12 -12 7 -23 8 -35 1 -20 -11 -31 -5 -21 11 3 6 21
11 40 11 19 0 37 -5 40 -11z m-1285 -84 c0 -7 -6 -16 -12 -18 -8 -4 -7 -6 3
-6 9 -1 19 -11 23 -23 11 -43 6 -51 -15 -24 -11 14 -27 26 -35 26 -15 0 -16 5
-8 35 6 23 44 32 44 10z m-83 -41 c-9 -9 -28 6 -21 18 4 6 10 6 17 -1 6 -6 8
-13 4 -17z m117 -79 c3 -8 1 -15 -4 -15 -6 0 -10 7 -10 15 0 8 2 15 4 15 2 0
6 -7 10 -15z m26 -110 c6 -39 21 -91 34 -117 22 -47 21 -63 -4 -33 -10 13 -14
12 -28 -2 -11 -10 -17 -12 -20 -4 -2 6 -8 9 -13 5 -15 -9 -10 12 5 25 11 9 15
9 19 -1 3 -9 8 -10 15 -3 7 7 5 22 -5 48 -16 38 -37 51 -31 19 1 -10 -7 -28
-18 -40 -13 -14 -21 -17 -22 -10 -1 7 -5 28 -8 47 -6 28 -4 33 8 28 24 -9 38
13 38 58 0 36 8 61 16 52 2 -1 8 -34 14 -72z m700 63 c0 -16 -84 -18 -100 -2
-7 7 5 11 45 13 40 1 55 -2 55 -11z m17 -112 c-5 -75 -11 -96 -26 -96 -17 0
-20 43 -5 55 14 10 13 15 -8 48 -17 27 -30 36 -50 37 -23 0 -28 -4 -28 -24 0
-14 -4 -28 -10 -31 -5 -3 -10 -21 -10 -39 0 -19 -3 -47 -6 -64 -5 -26 -9 -30
-24 -22 -9 5 -20 7 -23 4 -11 -11 -48 21 -43 39 2 9 0 17 -5 17 -5 0 -9 9 -9
19 0 11 -6 21 -12 23 -10 4 -8 14 7 41 11 21 25 35 32 32 7 -2 34 0 61 5 26 6
57 12 70 14 12 2 26 6 29 10 3 3 20 6 36 6 l30 0 -6 -74z m-687 -162 c0 -8 -7
-14 -15 -14 -8 0 -15 9 -15 20 0 13 5 18 15 14 8 -4 15 -12 15 -20z m485 -124
c3 -5 1 -10 -4 -10 -6 0 -11 5 -11 10 0 6 2 10 4 10 3 0 8 -4 11 -10z"/>
<path d="M4495 13100 c3 -5 8 -10 11 -10 2 0 4 5 4 10 0 6 -5 10 -11 10 -5 0
-7 -4 -4 -10z"/>
<path d="M4256 12976 c3 -9 11 -16 16 -16 13 0 5 23 -10 28 -7 2 -10 -2 -6
-12z"/>
<path d="M4360 12900 c0 -6 7 -10 15 -10 8 0 15 2 15 4 0 2 -7 6 -15 10 -8 3
-15 1 -15 -4z"/>
<path d="M3880 13135 c0 -21 25 -68 45 -85 25 -21 29 -4 5 22 -12 13 -24 35
-27 51 -6 29 -23 38 -23 12z"/>
<path d="M3965 13030 c3 -5 10 -10 16 -10 5 0 9 5 9 10 0 6 -7 10 -16 10 -8 0
-12 -4 -9 -10z"/>
<path d="M4904 12777 c-4 -11 0 -25 10 -36 9 -10 16 -27 16 -39 0 -26 -3 -26
109 -7 80 14 96 14 166 0 87 -18 116 -15 91 10 -8 8 -25 15 -38 15 -13 0 -33
6 -44 14 -18 13 -58 21 -140 30 -17 2 -35 6 -41 9 -5 3 -26 2 -46 -3 -23 -5
-37 -4 -37 2 0 5 -5 6 -11 2 -6 -3 -15 0 -20 7 -6 11 -9 10 -15 -4z"/>
<path d="M4936 12588 c3 -4 1 -8 -3 -8 -5 0 -6 -26 -2 -57 4 -32 8 -68 8 -80
1 -22 5 -23 71 -23 45 0 70 -4 70 -11 0 -6 20 7 45 30 25 23 74 55 109 71 131
58 96 72 -216 83 -48 2 -85 0 -82 -5z"/>
<path d="M4430 12450 c0 -5 5 -10 10 -10 6 0 10 5 10 10 0 6 -4 10 -10 10 -5
0 -10 -4 -10 -10z"/>
<path d="M5625 12100 c-3 -5 -1 -10 4 -10 6 0 11 5 11 10 0 6 -2 10 -4 10 -3
0 -8 -4 -11 -10z"/>
<path d="M4530 11873 c0 -32 4 -43 15 -43 18 0 18 -4 0 45 l-14 40 -1 -42z"/>
<path d="M4562 11720 c0 -14 2 -19 5 -12 2 6 2 18 0 25 -3 6 -5 1 -5 -13z"/>
<path d="M5699 11677 c6 -8 7 -18 3 -22 -4 -5 -2 -5 5 -1 14 8 6 36 -9 36 -7
0 -6 -5 1 -13z"/>
<path d="M4386 11662 c-2 -4 11 -6 30 -4 19 2 34 6 34 8 0 8 -59 4 -64 -4z"/>
<path d="M4779 11624 c17 -14 31 -34 31 -44 0 -16 -11 -18 -97 -19 -54 -1
-120 5 -148 12 -40 10 -61 11 -105 1 l-55 -12 47 -1 c45 -1 47 -2 51 -33 4
-32 4 -32 5 5 2 25 7 37 17 37 8 0 15 -4 15 -9 0 -14 33 -23 40 -11 5 7 11 6
20 -5 14 -17 46 -20 55 -5 12 19 23 10 31 -22 4 -18 7 -39 5 -45 -1 -10 4 -10
25 -1 17 8 21 14 13 17 -8 2 -17 9 -21 15 -18 27 -7 35 55 38 61 3 62 3 63 32
1 31 -36 76 -63 76 -8 0 -1 -11 16 -26z"/>
<path d="M4370 11591 c0 -6 4 -13 10 -16 6 -3 7 1 4 9 -7 18 -14 21 -14 7z"/>
<path d="M5685 11550 c3 -5 8 -10 11 -10 2 0 4 5 4 10 0 6 -5 10 -11 10 -5 0
-7 -4 -4 -10z"/>
<path d="M5724 11545 c-10 -8 -14 -15 -8 -15 7 0 12 -6 11 -12 0 -7 1 -22 1
-33 2 -18 3 -18 18 4 11 16 13 26 6 33 -6 6 -8 17 -5 24 7 18 2 18 -23 -1z"/>
<path d="M4782 11508 c-24 -6 -32 -13 -28 -24 11 -29 -108 -79 -137 -56 -6 5
-23 13 -37 17 -23 6 -23 5 5 -14 19 -14 24 -21 14 -21 -9 0 -27 8 -40 19 -13
10 -34 21 -46 25 -11 4 -27 14 -34 22 -10 13 -10 17 2 25 16 10 -1 12 -25 3
-11 -4 -13 -11 -7 -22 15 -30 23 -92 11 -92 -5 0 -10 -5 -10 -10 0 -6 11 -8
25 -4 21 5 25 3 25 -15 0 -25 11 -26 49 -7 20 11 42 13 83 7 54 -7 90 -27 142
-78 24 -24 24 -23 29 32 2 20 9 26 37 30 19 3 49 10 67 16 24 8 43 6 77 -5 45
-15 76 -13 76 6 0 5 -4 6 -10 3 -21 -13 -30 6 -14 31 9 13 14 27 10 31 -3 3
-6 2 -6 -4 0 -8 -14 -9 -82 -4 -5 1 -8 8 -8 16 0 9 -11 21 -25 27 -14 6 -25
15 -25 20 0 12 26 10 68 -7 l37 -15 -25 20 c-14 11 -38 22 -55 24 -76 12 -112
13 -143 4z m98 -18 c0 -5 -4 -10 -9 -10 -6 0 -13 5 -16 10 -3 6 1 10 9 10 9 0
16 -4 16 -10z m-350 -80 c0 -5 -4 -10 -10 -10 -5 0 -10 5 -10 10 0 6 5 10 10
10 6 0 10 -4 10 -10z"/>
<path d="M4377 11496 c-10 -8 -26 -12 -37 -9 -10 3 -27 -4 -39 -16 -12 -12
-21 -16 -21 -11 0 6 -4 10 -10 10 -5 0 -10 -11 -10 -25 0 -14 -4 -25 -10 -25
-5 0 -10 7 -10 15 0 8 -6 15 -14 15 -19 0 -33 -23 -18 -28 16 -5 15 -34 -1
-30 -7 2 -14 -1 -15 -7 -1 -5 9 -11 23 -13 17 -2 25 1 25 12 0 20 36 24 90 10
86 -23 102 -25 95 -14 -3 5 -1 10 4 10 15 0 14 73 -1 88 -15 15 -32 16 -23 2
3 -5 -1 -10 -9 -10 -19 0 -21 11 -4 28 16 16 7 15 -15 -2z m-43 -52 c4 -9 4
-19 2 -21 -8 -8 -26 8 -26 23 0 19 16 18 24 -2z"/>
<path d="M4231 11326 c-13 -14 -21 -30 -19 -37 2 -7 14 4 26 24 25 43 24 46
-7 13z"/>
<path d="M5779 11328 c-5 -10 -5 -47 0 -42 3 3 6 9 6 12 0 4 4 13 8 20 5 7 4
12 -2 12 -6 0 -12 -1 -12 -2z"/>
<path d="M1547 11302 c-4 -5 -7 -193 -8 -418 l-1 -409 141 -3 140 -3 7 25 c3
14 3 29 0 35 -7 10 -7 53 -3 529 l2 242 -115 0 c-63 0 -125 3 -136 6 -12 3
-24 2 -27 -4z"/>
<path d="M5860 11284 c0 -11 -6 -15 -19 -11 -26 6 -32 -13 -19 -55 6 -18 12
-39 14 -45 4 -17 16 -16 40 2 15 11 16 17 6 23 -7 5 -10 16 -7 24 4 9 2 19 -4
23 -6 3 -8 17 -5 31 3 13 3 24 0 24 -3 0 -6 -7 -6 -16z"/>
<path d="M5780 11259 c0 -5 5 -7 10 -4 6 3 10 8 10 11 0 2 -4 4 -10 4 -5 0
-10 -5 -10 -11z"/>
<path d="M6067 11230 c-3 -11 -2 -34 3 -50 4 -16 6 -31 2 -34 -3 -3 -1 -6 5
-6 5 0 7 -14 5 -31 -4 -29 -3 -31 18 -24 17 6 22 4 18 -7 -3 -7 -2 -31 2 -53
6 -39 7 -39 14 25 3 36 4 74 2 85 -2 11 -5 36 -5 55 -1 19 -6 42 -11 50 -9 13
-11 13 -20 0 -8 -12 -12 -13 -19 -2 -6 11 -10 9 -14 -8z m53 -50 c0 -5 -2 -10
-4 -10 -3 0 -8 5 -11 10 -3 6 -1 10 4 10 6 0 11 -4 11 -10z"/>
<path d="M5420 11221 c0 -6 5 -13 10 -16 6 -3 10 1 10 9 0 9 -4 16 -10 16 -5
0 -10 -4 -10 -9z"/>
<path d="M4127 11126 c-39 -89 -46 -115 -24 -99 19 15 56 22 63 12 9 -15 85
-51 97 -46 7 3 -12 15 -40 28 -30 13 -54 30 -54 38 -1 9 -1 46 -1 84 -1 37 -1
67 -2 67 -1 0 -18 -38 -39 -84z"/>
<path d="M4819 11131 l-16 -38 35 -13 c27 -10 36 -10 42 0 11 18 -3 61 -25 76
-18 12 -21 9 -36 -25z"/>
<path d="M5624 11138 l-19 -23 25 20 c14 11 27 21 29 22 2 2 0 3 -6 3 -5 0
-18 -10 -29 -22z"/>
<path d="M5865 11140 c-4 -6 -11 -8 -16 -5 -5 3 -6 -1 -3 -9 3 -9 10 -16 15
-16 5 0 9 -9 9 -21 0 -11 -4 -18 -9 -15 -4 3 -6 -6 -3 -19 3 -19 1 -24 -11
-20 -15 7 -29 -14 -33 -52 -2 -15 3 -23 12 -23 8 0 14 -5 14 -11 0 -7 -9 -5
-24 5 -15 10 -27 12 -31 6 -3 -6 1 -10 9 -10 19 0 40 -36 26 -45 -5 -3 -16 -3
-22 0 -7 4 -1 -3 14 -15 15 -11 25 -27 22 -34 -8 -21 -72 -30 -92 -14 -15 11
-15 11 -4 -4 11 -14 9 -17 -13 -25 -24 -8 -25 -10 -11 -28 14 -18 15 -18 16
-2 0 9 4 17 9 17 5 0 17 3 27 7 12 4 15 3 10 -5 -4 -7 -1 -12 8 -12 9 0 16 5
16 11 0 5 5 7 12 3 6 -4 17 1 25 11 7 11 13 15 13 9 -1 -21 -29 -44 -54 -44
-28 0 -34 -14 -13 -27 7 -4 21 -21 31 -38 13 -23 8 -19 -23 14 -23 24 -44 41
-48 38 -3 -4 2 -16 12 -27 10 -11 23 -30 29 -43 16 -33 93 -67 170 -74 63 -6
68 -4 95 21 54 52 111 206 73 199 -7 -2 -12 2 -12 7 0 6 5 10 10 10 6 0 10 5
10 12 0 9 -3 9 -12 0 -17 -17 -32 -15 -62 9 -21 16 -24 24 -16 39 8 16 6 22
-10 32 -11 7 -20 18 -20 25 0 7 -9 13 -19 13 -11 0 -22 4 -26 9 -3 5 -21 7
-40 4 -39 -6 -49 11 -12 21 17 5 19 8 8 15 -8 5 -11 16 -7 27 4 10 1 21 -6 26
-11 6 -10 8 0 8 7 0 10 4 7 10 -3 6 1 7 9 4 9 -3 16 -1 16 5 0 10 -14 15 -32
12 -5 0 -8 4 -8 9 0 13 -27 13 -35 0z m45 -64 c0 -3 -4 -8 -10 -11 -5 -3 -10
-1 -10 4 0 6 5 11 10 11 6 0 10 -2 10 -4z m-85 -315 c3 -5 2 -12 -3 -15 -5 -3
-9 1 -9 9 0 17 3 19 12 6z"/>
<path d="M5574 11088 l-19 -23 23 19 c21 18 27 26 19 26 -2 0 -12 -10 -23 -22z"/>
<path d="M4521 11081 c-8 -5 -11 -16 -6 -30 3 -12 11 -19 16 -16 12 8 11 -7
-1 -41 l-11 -27 27 18 c26 17 27 16 58 -13 17 -16 36 -28 41 -27 6 2 22 6 37
9 22 5 27 11 24 28 -2 20 -8 22 -45 19 -69 -5 -108 20 -123 76 -2 8 -8 9 -17
4z m109 -101 c0 -5 -4 -10 -9 -10 -6 0 -13 5 -16 10 -3 6 1 10 9 10 9 0 16 -4
16 -10z"/>
<path d="M5951 11087 c2 -1 12 -9 22 -16 15 -12 17 -12 11 3 -3 9 -13 16 -22
16 -8 0 -13 -1 -11 -3z"/>
<path d="M4808 10973 c7 -3 16 -2 19 1 4 3 -2 6 -13 5 -11 0 -14 -3 -6 -6z"/>
<path d="M2781 10928 c9 -7 19 -25 23 -40 3 -16 13 -28 22 -28 13 0 15 -8 11
-42 -4 -24 -9 -106 -12 -183 -3 -77 -8 -170 -10 -206 -4 -53 0 -83 20 -144 25
-76 83 -186 127 -242 45 -55 68 -92 68 -108 0 -8 5 -15 10 -15 6 0 15 -10 20
-22 10 -23 100 -156 144 -213 89 -114 150 -188 199 -241 31 -34 57 -67 57 -73
0 -6 5 -11 10 -11 6 0 9 -10 9 -22 -1 -17 -2 -19 -6 -5 -5 18 -18 23 -26 10
-2 -5 -2 -2 -1 4 2 7 -10 20 -26 28 -36 19 -40 19 -40 0 0 -8 5 -15 12 -15 6
0 3 -9 -7 -20 -18 -20 -17 -20 8 -20 34 0 40 -13 16 -33 -24 -21 -24 -43 -1
-56 14 -9 15 -10 1 -11 -20 0 -14 -59 8 -76 7 -7 16 -29 19 -50 3 -28 2 -33
-4 -19 -9 19 -9 19 -17 -4 -4 -13 -3 -26 3 -30 5 -3 12 -15 14 -26 2 -11 9
-19 15 -18 7 2 11 -18 11 -53 -1 -45 7 -70 36 -127 35 -69 63 -177 51 -196 -3
-5 -1 -12 4 -15 20 -13 24 -133 7 -223 -18 -99 -20 -218 -6 -278 6 -22 12 -98
15 -170 4 -122 12 -201 21 -217 2 -3 -2 -9 -8 -11 -7 -3 -8 -6 -3 -6 13 -1 7
-348 -6 -372 -6 -12 -5 -19 3 -21 8 -3 8 -41 0 -151 -6 -81 -9 -154 -5 -163 3
-9 6 -127 7 -262 2 -233 21 -477 46 -569 5 -20 5 -35 -1 -39 -5 -3 -9 -11 -9
-17 0 -8 4 -7 9 2 12 18 16 -7 55 -329 2 -19 5 -35 6 -35 1 0 3 -9 5 -19 2
-11 11 -53 20 -93 9 -41 14 -77 11 -80 -5 -6 -278 -5 -601 2 -88 2 -410 6
-715 10 -305 3 -624 8 -707 10 -129 3 -153 2 -153 -10 0 -13 41 -15 273 -15
149 0 331 -2 402 -4 72 -3 326 -7 565 -11 239 -4 471 -9 515 -10 44 -2 158 -4
253 -5 96 -1 172 -6 172 -11 0 -8 -40 -14 -85 -11 -55 3 -1245 25 -1290 24
-16 0 -73 0 -125 0 -52 0 -104 -1 -115 -1 -10 0 -26 5 -34 12 -10 8 -13 8 -8
1 5 -9 -35 -11 -151 -8 -173 5 -264 6 -331 5 l-44 -1 7 -282 c8 -348 8 -345
41 -318 23 19 30 -13 11 -51 -9 -17 -13 -35 -10 -40 3 -5 -3 -6 -12 -2 -12 4
-15 3 -10 -6 4 -6 15 -11 24 -9 10 1 23 -1 30 -6 8 -5 33 -10 57 -11 24 -2 49
-6 55 -10 6 -4 14 -4 18 0 4 3 -1 11 -11 16 -15 9 -16 12 -1 34 22 34 3 69
-34 62 -23 -4 -24 -3 -10 7 15 11 15 14 -2 36 -15 19 -16 28 -7 39 9 12 9 13
0 7 -9 -5 -13 -1 -14 11 0 10 -2 38 -4 63 -2 25 -1 37 3 28 6 -15 9 -15 27 -2
19 14 19 16 3 28 -26 19 -11 26 57 26 62 0 62 0 57 -26 -3 -15 -1 -24 4 -21 5
3 9 -30 9 -74 0 -43 -3 -79 -6 -79 -4 0 -9 -16 -11 -36 -3 -29 -1 -38 14 -42
26 -7 22 -31 -7 -38 -14 -3 -25 -12 -25 -18 0 -15 42 -15 52 -1 5 6 8 5 8 -3
0 -10 5 -10 20 -2 12 6 56 8 117 5 110 -7 106 -7 151 -4 25 2 32 6 27 18 -4
11 1 9 17 -5 32 -29 83 -37 118 -19 15 8 45 14 66 12 24 -1 39 3 42 12 2 8 0
11 -5 8 -6 -4 -19 0 -29 8 -19 14 -19 14 1 16 11 1 23 1 27 0 4 0 19 4 32 9
30 11 44 -3 26 -25 -9 -11 -9 -18 3 -30 18 -17 31 -20 21 -4 -4 8 -1 8 12 1
18 -9 57 -9 124 1 18 3 25 10 24 25 -1 29 14 28 18 -1 3 -21 7 -22 88 -20 50
1 90 -3 98 -9 12 -11 13 6 3 52 -1 3 -6 -3 -12 -13 -6 -9 -14 -15 -20 -12 -5
4 -9 3 -9 -2 0 -4 -11 -8 -25 -8 -16 0 -23 5 -21 12 3 7 -1 10 -8 7 -8 -3 -17
-1 -21 5 -3 6 1 11 9 11 9 0 16 4 16 9 0 5 20 8 45 6 25 -1 48 1 51 6 3 5 15
3 26 -5 11 -8 26 -12 34 -9 14 5 37 -14 42 -36 2 -8 -3 -11 -12 -8 -9 4 -17 3
-20 -2 -3 -4 13 -8 35 -9 22 -2 39 2 39 8 0 5 -7 10 -15 10 -22 0 -18 27 5 40
13 7 20 7 20 1 0 -6 17 -3 37 6 26 10 38 12 41 4 6 -17 22 -13 22 5 0 14 3 14
15 4 8 -7 15 -8 15 -3 0 6 11 8 25 5 14 -2 25 -9 25 -14 0 -6 -6 -8 -14 -5
-10 4 -12 0 -9 -14 5 -19 7 -18 23 6 18 27 18 27 25 6 5 -15 10 -19 18 -12 7
5 39 7 72 4 33 -3 130 -5 215 -5 85 0 159 -2 165 -6 5 -3 24 -5 42 -3 24 2 34
-3 44 -21 7 -13 25 -39 41 -58 15 -19 28 -40 28 -47 0 -7 4 -13 10 -13 5 0 14
-18 20 -40 6 -22 16 -40 21 -40 6 0 9 -6 6 -13 -3 -7 4 -19 14 -26 11 -6 17
-15 15 -20 -3 -4 13 -13 34 -20 40 -12 51 -25 28 -34 -7 -2 -9 -8 -5 -13 4 -5
12 -2 16 5 6 9 20 12 40 9 21 -3 31 0 31 9 0 8 12 13 29 13 47 0 229 69 291
110 21 14 189 90 198 90 5 0 18 -11 30 -25 13 -14 27 -23 33 -19 19 11 87 -17
93 -39 4 -16 8 -18 18 -9 20 16 114 27 122 13 5 -8 13 -8 27 -1 11 6 23 9 28
6 11 -7 44 42 36 54 -3 5 11 9 32 9 21 0 49 2 63 4 36 6 52 -9 37 -34 -15 -24
-24 -24 -32 0 -4 13 -12 17 -30 13 -14 -2 -25 -9 -25 -16 0 -6 -5 -4 -10 4 -8
13 -11 13 -22 1 -11 -11 -11 -13 0 -6 11 6 12 3 3 -13 -8 -15 -7 -21 4 -26 8
-3 17 -1 21 5 3 6 12 8 20 5 7 -3 16 -1 20 5 3 5 14 7 25 4 12 -4 21 -1 25 9
11 30 29 3 74 -112 11 -29 20 -72 20 -96 0 -74 16 -103 67 -120 48 -16 89 -10
193 29 257 97 326 127 345 150 6 7 28 18 49 23 34 10 102 53 117 75 8 11 -19
105 -37 132 -8 11 -14 30 -14 43 l0 24 124 -4 c72 -2 122 1 119 6 -4 5 -1 6 6
2 6 -4 76 -9 155 -10 78 -2 148 -6 154 -10 7 -4 12 -2 12 3 0 6 11 11 25 11
14 0 25 -4 25 -9 0 -6 12 -6 30 -1 17 5 30 6 30 2 0 -6 139 -9 530 -11 58 0
120 -1 138 -1 17 0 41 4 51 9 15 8 20 7 25 -5 3 -9 11 -12 18 -8 17 11 58 11
65 1 2 -4 11 -2 20 4 9 8 17 9 21 3 11 -17 42 -25 42 -11 1 31 22 -32 41 -119
11 -54 23 -102 26 -107 3 -5 8 -25 10 -45 3 -20 11 -59 19 -87 8 -27 21 -86
30 -130 9 -44 20 -84 24 -90 4 -5 11 -30 15 -55 4 -25 14 -72 22 -105 8 -33
17 -71 19 -85 6 -38 25 -120 35 -160 5 -19 14 -55 19 -80 24 -120 59 -253 69
-263 6 -6 11 -20 11 -31 0 -19 7 -21 61 -23 33 -2 76 -7 95 -12 21 -6 34 -6
34 0 0 6 19 7 46 3 55 -7 56 -31 -6 201 -57 217 -93 367 -105 435 -4 19 -13
58 -21 85 -34 120 -131 529 -148 628 -7 36 -6 37 22 37 16 0 35 7 42 15 15 17
35 20 24 4 -5 -9 6 -10 40 -7 25 3 49 2 51 -3 6 -9 160 -3 176 6 5 4 9 1 9 -5
0 -12 69 -10 76 2 3 5 10 5 16 2 6 -4 8 -3 5 3 -10 16 36 33 58 20 14 -7 20
-7 23 1 2 7 8 12 14 12 6 0 4 -8 -6 -19 -16 -18 -14 -18 82 -18 63 0 99 4 99
11 1 6 4 134 8 285 l7 274 -43 -6 c-25 -3 -37 -2 -29 3 8 5 -43 9 -121 10 -74
1 -171 2 -217 4 -46 1 -85 -1 -88 -5 -2 -4 -22 -5 -44 -2 -30 4 -40 2 -40 -8
-1 -11 -3 -11 -13 2 -10 12 -40 15 -167 17 -85 1 -155 2 -155 2 0 1 -89 3
-198 5 -108 2 -202 7 -207 10 -6 3 -10 3 -10 -2 0 -8 -67 -8 -210 1 -41 3
-153 8 -249 11 -96 3 -178 8 -182 11 -4 2 -10 0 -14 -6 -4 -6 -12 -7 -18 -3
-7 4 -23 8 -37 9 -14 0 -142 4 -285 8 -143 5 -264 10 -268 13 -4 3 -14 0 -22
-7 -18 -15 -29 20 -20 67 l6 35 112 -6 c165 -8 783 -19 777 -13 -10 9 -179 16
-525 22 -192 4 -355 8 -360 10 -6 1 -12 34 -13 71 -3 82 -60 315 -98 399 -30
68 -33 119 -16 259 18 145 16 560 -2 626 -9 30 -16 97 -17 150 0 52 -5 120
-10 150 -5 30 -13 114 -18 186 -5 72 -19 182 -30 245 -11 63 -20 143 -20 179
0 36 -1 122 -1 193 0 94 -3 129 -12 132 -8 3 -14 25 -14 54 -1 27 -8 59 -14
72 -7 12 -14 46 -16 73 -1 28 -8 71 -14 96 -6 25 -13 59 -16 75 -19 113 -50
264 -71 340 -14 50 -28 106 -33 125 -18 81 -39 148 -62 197 l-24 52 -94 -66
c-52 -36 -138 -86 -190 -112 l-95 -46 -135 1 c-147 1 -180 8 -420 92 -63 23
-182 62 -265 88 -179 56 -213 72 -217 98 -2 11 -23 35 -48 54 -25 19 -47 40
-50 48 -3 9 -10 10 -19 4 -11 -6 -12 -12 -3 -22 9 -11 8 -19 -4 -36 -14 -20
-14 -23 3 -29 23 -8 53 -33 53 -45 0 -5 -12 -1 -27 10 -48 32 -51 33 -72 10
-12 -12 -21 -19 -21 -15 0 3 -15 0 -33 -8 -27 -11 -37 -11 -46 -2 -10 9 -11 9
-7 -3 4 -10 -7 -23 -29 -38 -39 -25 -55 -22 -55 9 0 11 -9 29 -20 41 -23 25
-27 46 -6 29 10 -8 16 -9 21 -1 3 5 0 13 -8 16 -9 3 -12 14 -9 31 4 21 2 25
-12 20 -9 -4 -16 -1 -16 6 0 12 -70 73 -80 70 -12 -4 -9 47 3 54 8 4 16 16 20
26 6 16 4 16 -30 2 -41 -17 -53 -13 -35 15 20 32 14 50 -18 56 -16 4 -27 10
-24 15 3 5 -2 9 -11 9 -8 0 -18 7 -21 15 -4 8 -12 15 -20 15 -9 0 -14 11 -14
29 0 19 -11 42 -29 62 -16 17 -27 38 -24 45 3 8 -6 19 -22 26 -25 11 -25 13
-9 25 15 11 15 13 2 13 -18 0 -31 26 -22 42 4 6 -5 2 -20 -7 l-26 -17 12 32
c10 29 8 35 -9 49 -11 9 -23 28 -27 43 -4 19 -11 26 -21 22 -15 -6 -19 4 -16
39 1 9 -5 20 -14 23 -9 4 -14 13 -10 22 3 8 -1 22 -10 31 -8 10 -16 27 -18 39
-2 12 -9 28 -15 34 -7 7 -12 18 -12 25 0 8 -7 16 -15 19 -8 4 -15 14 -15 23 0
9 -16 38 -35 65 -19 27 -35 57 -35 66 0 9 -5 21 -12 28 -9 9 -9 15 0 24 14 14
16 32 2 23 -6 -3 -7 1 -4 9 3 9 10 16 15 16 5 0 9 5 9 11 0 6 -7 9 -15 5 -17
-6 -21 9 -5 19 6 4 8 11 4 16 -3 5 -10 6 -16 3 -13 -8 -1 96 13 111 5 5 9 18
9 30 1 29 20 51 54 59 15 4 26 10 23 13 -12 11 14 43 34 43 13 0 18 -4 13 -12
-4 -7 -3 -8 5 -4 6 4 9 12 6 17 -9 13 87 1 148 -19 51 -17 52 -18 52 -57 0
-22 -3 -56 -7 -75 l-7 -35 18 41 c10 22 22 59 26 82 6 37 4 42 -12 42 -10 0
-76 21 -148 46 -194 69 -281 93 -354 100 -55 4 -63 3 -50 -8z m779 -1572 c0
-8 -4 -18 -10 -21 -5 -3 -10 3 -10 14 0 12 5 21 10 21 6 0 10 -6 10 -14z m-85
-63 c-4 -10 -7 -32 -6 -50 1 -17 -4 -35 -10 -39 -9 -5 -10 -2 -6 9 3 10 2 17
-3 17 -11 0 -13 40 -4 64 3 9 13 16 21 16 11 0 13 -5 8 -17z m430 -33 c23 -26
4 -26 -26 0 -18 15 -20 19 -8 20 9 0 24 -9 34 -20z m103 -8 c4 -25 -52 -152
-66 -152 -29 0 -22 86 9 132 11 14 19 31 19 38 0 21 35 5 38 -18z m-150 -40
c2 -7 -2 -10 -12 -6 -9 3 -16 11 -16 16 0 13 23 5 28 -10z m-383 -152 c-3 -5
-11 -10 -16 -10 -6 0 -7 5 -4 10 3 6 11 10 16 10 6 0 7 -4 4 -10z m1305 -2388
c-4 -23 -4 -42 0 -42 8 0 5 -36 -5 -62 -4 -10 -3 -18 3 -18 6 0 8 -16 5 -39
-3 -21 0 -47 6 -59 7 -12 7 -23 2 -27 -5 -3 -7 -17 -5 -31 4 -20 1 -25 -9 -21
-29 11 -40 -8 -23 -42 9 -17 21 -31 26 -31 12 0 1 -52 -13 -61 -5 -4 -5 -9 2
-14 7 -4 11 -25 10 -48 -1 -23 2 -49 5 -58 5 -11 0 -24 -14 -37 -21 -19 -21
-21 -4 -41 20 -23 39 -27 50 -9 5 8 0 9 -14 6 -12 -4 -22 -2 -22 3 0 14 78 11
87 -3 11 -19 12 -38 2 -38 -6 0 -7 -5 -4 -10 9 -15 -4 -50 -20 -50 -8 0 -16
-4 -19 -9 -4 -5 3 -7 14 -4 15 4 20 0 20 -13 0 -15 -2 -16 -9 -5 -7 11 -10 10
-12 -4 -4 -18 -5 -18 -23 1 -11 11 -17 13 -15 5 3 -8 20 -22 38 -32 19 -10 27
-19 19 -21 -22 -8 -56 13 -69 43 -10 27 -29 40 -29 21 0 -21 27 -62 41 -62 12
0 15 -7 11 -25 -5 -27 -22 -44 -22 -23 -1 7 -7 27 -15 43 -9 17 -13 21 -9 8 2
-12 1 -24 -5 -27 -5 -3 -6 -21 -1 -41 7 -33 7 -35 -19 -35 -14 0 -21 -4 -16
-8 6 -4 16 -18 24 -32 13 -22 12 -24 -1 -13 -8 7 -17 10 -21 7 -11 -11 -18 36
-8 55 14 25 14 34 1 26 -5 -3 -10 -1 -10 6 0 10 -3 10 -12 1 -17 -17 -41 -15
-34 3 3 8 2 15 -3 15 -5 0 -11 10 -14 23 -5 20 -5 20 7 5 12 -16 14 -16 34 7
23 26 30 65 12 65 -5 0 -10 13 -10 29 0 24 4 29 20 26 13 -2 20 2 20 11 0 8
-4 13 -9 9 -5 -3 -12 -1 -16 5 -4 6 -11 7 -17 4 -6 -4 -5 2 1 15 13 24 7 41
-15 41 -15 0 -19 12 -7 23 3 4 13 1 21 -6 13 -10 15 -9 9 6 -3 9 -2 17 3 17 6
0 10 -6 11 -12 0 -10 2 -10 6 0 2 6 11 12 19 12 20 0 17 13 -6 28 -16 10 -20
10 -21 0 0 -11 -2 -11 -6 0 -2 6 -9 10 -14 6 -5 -3 -9 -1 -9 5 0 5 5 13 10 16
6 4 8 11 4 16 -3 5 -2 9 3 8 18 -3 33 1 33 10 0 5 -8 8 -17 6 -24 -3 -35 4
-27 17 4 6 8 25 9 42 2 17 5 50 7 74 3 23 1 42 -3 42 -5 0 -9 -5 -9 -11 0 -5
-5 -7 -11 -3 -7 4 -7 9 -2 13 6 3 13 19 17 34 4 15 10 26 14 23 9 -5 26 14 30
34 2 8 9 18 15 22 8 6 5 10 -8 14 -11 3 -25 16 -31 29 -10 20 -9 23 7 20 22
-5 26 10 4 19 -8 3 -12 12 -9 21 3 8 11 12 16 9 6 -4 8 1 4 14 -4 11 -2 23 3
27 6 3 8 18 5 34 -4 20 -1 30 10 34 9 4 16 11 16 18 0 6 -7 9 -15 6 -12 -5
-12 -2 -2 20 l11 26 12 -29 c8 -19 9 -45 4 -72z m-465 59 c3 -5 2 -12 -3 -15
-5 -3 -9 1 -9 9 0 17 3 19 12 6z m325 -62 c0 8 3 12 6 8 8 -8 -5 -47 -17 -47
-5 0 -9 12 -9 28 0 21 2 24 10 12 8 -12 10 -12 10 -1z m23 -72 c-2 -4 -3 -16
-3 -27 0 -12 -7 -20 -17 -21 -11 0 -13 -3 -5 -6 6 -2 12 -11 12 -19 0 -8 5
-14 10 -14 6 0 10 5 10 11 0 5 5 7 11 3 7 -4 7 -9 2 -13 -14 -9 -36 -52 -29
-58 2 -3 1 -16 -4 -29 -6 -14 -6 -26 0 -29 6 -4 6 -14 -1 -27 -8 -16 -8 -19 1
-13 9 5 10 1 5 -16 -4 -13 -10 -26 -14 -29 -8 -7 -7 -63 1 -76 5 -7 1 -14 -7
-18 -9 -3 -15 0 -15 10 0 8 -7 17 -17 21 -14 5 -13 8 5 14 16 6 21 16 20 34
-3 29 -28 34 -28 5 0 -11 -4 -20 -10 -20 -6 0 -6 9 0 26 6 14 8 30 4 35 -3 5
-1 9 5 9 5 0 11 -6 14 -12 2 -7 2 22 -1 65 -3 53 -1 77 7 77 18 0 13 29 -10
53 l-20 22 26 3 c15 2 24 8 22 15 -3 7 -10 11 -17 9 -11 -2 -11 0 -1 11 11 14
49 17 44 4z m56 -111 c9 -10 8 -15 -4 -20 -10 -4 -15 1 -15 14 0 24 4 25 19 6z
m-2 -42 c-3 -3 -12 -4 -19 -1 -8 3 -5 6 6 6 11 1 17 -2 13 -5z m313 -45 c0 -5
-4 -9 -8 -9 -5 0 -9 7 -9 15 0 8 4 12 9 9 4 -3 8 -9 8 -15z m0 -29 c0 -5 -4
-10 -10 -10 -5 0 -10 5 -10 10 0 6 5 10 10 10 6 0 10 -4 10 -10z m-192 -42
c-2 -7 2 -12 8 -11 6 1 11 -5 11 -13 0 -18 -2 -18 -21 2 -9 8 -14 20 -11 25 9
13 15 11 13 -3z m192 -14 c0 -2 -7 -4 -15 -4 -8 0 -15 4 -15 10 0 5 7 7 15 4
8 -4 15 -8 15 -10z m-23 -46 c-3 -7 -5 -2 -5 12 0 14 2 19 5 13 2 -7 2 -19 0
-25z m-414 -41 c-5 -8 -8 -7 -11 1 -2 7 -9 9 -14 6 -7 -4 -8 -2 -4 4 4 6 13 9
21 6 8 -4 12 -11 8 -17z m436 -9 c-5 -93 23 -386 38 -412 7 -11 31 -201 32
-253 1 -29 -2 -33 -25 -33 -21 0 -25 4 -20 18 5 15 4 15 -6 2 -17 -19 -61 -22
-54 -3 3 7 1 13 -5 13 -6 0 -7 5 -3 11 4 8 -1 9 -16 4 -20 -6 -22 -5 -15 11 4
11 9 47 11 82 4 71 10 86 29 78 18 -6 29 25 13 36 -7 4 -15 8 -18 8 -3 0 -6
19 -8 41 -2 32 3 48 19 65 11 12 18 27 14 33 -3 6 -3 16 1 23 4 6 8 24 9 39 2
19 -1 26 -11 22 -10 -4 -11 2 -5 25 5 16 7 65 5 108 -3 74 1 114 12 114 3 0 4
-15 3 -32z m-429 -42 c0 -7 -9 -16 -19 -19 -17 -4 -18 -2 -8 14 14 22 27 25
27 5z m24 -22 c16 -6 23 -25 9 -22 -17 3 -43 -15 -43 -29 0 -9 -6 -13 -14 -10
-22 9 -26 -3 -9 -23 9 -10 22 -16 29 -13 23 9 16 -13 -8 -26 -13 -6 -16 -10
-7 -7 9 2 16 -2 16 -9 0 -10 -5 -11 -19 -4 -10 5 -18 15 -18 21 0 7 -4 7 -14
-1 -10 -8 -16 -9 -21 -1 -8 13 4 32 16 25 5 -4 9 1 9 9 0 9 -5 16 -11 16 -6 0
6 18 27 40 21 22 39 40 40 40 1 0 9 -3 18 -6z m196 -59 c0 -8 -4 -15 -10 -15
-5 0 -7 7 -4 15 4 8 8 15 10 15 2 0 4 -7 4 -15z m-214 -22 c-10 -10 -19 5 -10
18 6 11 8 11 12 0 2 -7 1 -15 -2 -18z m-76 -93 c5 0 8 -9 7 -20 -1 -11 -8 -20
-16 -20 -8 0 -11 3 -8 7 4 3 2 12 -3 18 -6 7 -7 21 -3 31 7 17 8 18 11 2 2
-10 7 -18 12 -18z m88 -31 c-2 -26 -6 -45 -11 -42 -4 2 -9 -3 -12 -11 -16 -52
-17 -52 -31 -21 -7 17 -13 51 -12 76 1 45 2 45 35 45 l34 -1 -3 -46z m49 45
c-3 -3 -12 -4 -19 -1 -8 3 -5 6 6 6 11 1 17 -2 13 -5z m-6 -27 c-6 -8 -8 -17
-4 -20 3 -4 -1 -7 -10 -7 -19 0 -20 2 -11 24 3 9 13 16 21 16 12 0 13 -3 4
-13z m353 -18 c-8 -14 -34 -10 -34 5 0 9 7 12 20 9 11 -3 17 -9 14 -14z m-479
-79 c3 -5 -1 -10 -10 -10 -9 0 -13 5 -10 10 3 6 8 10 10 10 2 0 7 -4 10 -10z
m55 -55 c0 -9 -9 -15 -22 -14 -17 1 -19 2 -5 6 9 2 17 9 17 14 0 5 2 9 5 9 3
0 5 -7 5 -15z m273 -101 c-1 -39 -6 -70 -12 -72 -6 -2 -11 -10 -11 -17 0 -8
-6 -17 -12 -21 -7 -4 -10 -4 -6 1 4 4 -3 16 -15 27 -12 11 -17 17 -10 14 6 -3
20 -3 32 1 19 8 19 8 -5 20 -13 6 -22 7 -18 2 3 -5 1 -9 -5 -9 -13 0 -23 33
-15 54 3 9 12 16 20 16 8 0 14 8 15 18 0 11 2 12 6 4 3 -7 -3 -22 -13 -33 -9
-10 -14 -22 -11 -26 4 -3 7 -1 7 6 0 7 9 3 19 -10 18 -22 20 -23 19 -4 0 11 2
35 6 53 4 19 2 32 -4 32 -5 0 -10 5 -10 11 0 6 6 9 13 6 8 -3 11 -26 10 -73z
m-263 52 c0 -11 -19 -15 -25 -6 -3 5 1 10 9 10 9 0 16 -2 16 -4z m16 -40 c1
-7 -6 -18 -16 -24 -15 -9 -19 -7 -23 9 -3 12 0 19 9 19 8 0 14 5 14 12 0 15
13 2 16 -16z m51 -58 c-3 -8 -6 -5 -6 6 -1 11 2 17 5 13 3 -3 4 -12 1 -19z
m-80 -20 c-3 -7 -5 -2 -5 12 0 14 2 19 5 13 2 -7 2 -19 0 -25z m145 -28 c2
-22 -1 -39 -6 -37 -14 5 -16 77 -1 77 1 0 5 -18 7 -40z m58 -14 c0 -11 -19
-15 -25 -6 -3 5 1 10 9 10 9 0 16 -2 16 -4z m50 -22 c0 -8 -19 -13 -24 -6 -3
5 1 9 9 9 8 0 15 -2 15 -3z m260 -103 c0 -15 -43 -17 -80 -4 l-35 12 58 0 c31
1 57 -3 57 -8z m-3180 -575 c0 -8 -7 -16 -15 -20 -13 -4 -14 -2 -5 14 13 23
20 26 20 6z m-262 -25 c31 -27 27 -34 -8 -16 -16 9 -30 20 -30 25 0 15 12 12
38 -9z m397 8 c-4 -6 1 -16 11 -23 26 -19 9 -38 -22 -24 -18 8 -28 8 -36 0 -8
-8 -14 -7 -24 3 -18 17 -18 29 0 22 7 -3 19 0 25 6 9 9 14 8 22 -3 8 -12 9
-10 4 8 -5 16 -2 22 10 22 9 0 13 -5 10 -11z m62 -41 c-3 -8 -6 -5 -6 6 -1 11
2 17 5 13 3 -3 4 -12 1 -19z m578 2 c3 -5 -1 -10 -9 -10 -9 0 -16 5 -16 10 0
6 4 10 9 10 6 0 13 -4 16 -10z m2398 -57 c7 -42 1 -55 -16 -32 -7 9 -18 14
-24 12 -7 -3 -13 2 -13 11 0 9 -8 16 -19 16 -11 0 -26 3 -35 6 -32 12 -15 21
43 23 l58 2 6 -38z m-139 -95 c-4 -7 -10 -4 -17 7 -7 14 -11 15 -18 4 -4 -7
-11 -10 -16 -6 -4 5 -1 12 7 17 17 11 53 -7 44 -22z m113 -4 c-3 -3 -12 -4
-19 -1 -8 3 -5 6 6 6 11 1 17 -2 13 -5z"/>
<path d="M4742 6410 c0 -14 2 -19 5 -12 2 6 2 18 0 25 -3 6 -5 1 -5 -13z"/>
<path d="M4730 6250 c-13 -8 -12 -10 3 -10 9 0 17 5 17 10 0 12 -1 12 -20 0z"/>
<path d="M4710 6029 c0 -5 5 -7 10 -4 6 3 10 8 10 11 0 2 -4 4 -10 4 -5 0 -10
-5 -10 -11z"/>
<path d="M4820 6013 c0 -12 14 -28 27 -30 6 -1 10 5 9 15 -3 17 -36 31 -36 15z"/>
<path d="M4785 5960 c3 -5 8 -10 11 -10 2 0 4 5 4 10 0 6 -5 10 -11 10 -5 0
-7 -4 -4 -10z"/>
<path d="M4697 5852 c-22 -25 -21 -29 8 -34 22 -5 25 -2 25 23 0 33 -10 37
-33 11z"/>
<path d="M4570 5976 c0 -9 30 -14 35 -6 4 6 -3 10 -14 10 -12 0 -21 -2 -21 -4z"/>
<path d="M4564 5949 c-4 -7 -3 -9 4 -5 6 3 16 -2 22 -11 10 -17 11 -17 8 1 -4
23 -23 32 -34 15z"/>
<path d="M5636 10897 c3 -10 9 -15 12 -12 3 3 0 11 -7 18 -10 9 -11 8 -5 -6z"/>
<path d="M6065 10890 c3 -5 8 -10 11 -10 2 0 4 5 4 10 0 6 -5 10 -11 10 -5 0
-7 -4 -4 -10z"/>
<path d="M5661 10870 c0 -18 27 -56 34 -48 3 3 0 12 -8 19 -8 8 -16 21 -20 29
-5 13 -5 13 -6 0z"/>
<path d="M1580 10277 c0 -29 18 -47 48 -47 13 0 20 -4 17 -10 -4 -6 15 -10 49
-10 31 0 56 5 56 10 0 6 9 10 20 10 25 0 47 37 30 54 -8 8 -10 7 -5 -5 8 -22
-12 -35 -63 -42 -30 -4 -42 -2 -39 6 2 7 16 13 30 15 38 5 35 30 -3 27 -17 -1
-33 1 -36 6 -8 14 -24 10 -24 -6 0 -8 6 -15 13 -15 6 0 -1 -7 -17 -15 -27 -14
-31 -14 -45 0 -15 15 -14 18 3 31 19 13 19 14 -7 14 -22 0 -27 -5 -27 -23z"/>
<path d="M9298 10281 c11 -6 10 -10 -4 -15 -9 -3 -14 -9 -11 -13 9 -8 38 17
31 28 -3 5 -11 9 -17 9 -8 0 -8 -3 1 -9z"/>
<path d="M9282 10135 c0 -16 2 -22 5 -12 2 9 2 23 0 30 -3 6 -5 -1 -5 -18z"/>
<path d="M5413 10057 c-11 -92 -9 -122 8 -111 5 3 7 21 3 40 -5 26 -2 35 10
40 9 3 14 10 11 15 -3 4 -6 29 -7 54 -1 77 -14 58 -25 -38z"/>
<path d="M5350 9890 c0 -5 5 -10 10 -10 6 0 10 5 10 10 0 6 -4 10 -10 10 -5 0
-10 -4 -10 -10z"/>
<path d="M3373 9280 c-11 -16 -10 -18 2 -14 8 4 15 12 15 20 0 19 -3 18 -17
-6z"/>
<path d="M3376 9131 c-4 -5 -2 -12 3 -15 5 -4 12 -2 15 3 4 5 2 12 -3 15 -5 4
-12 2 -15 -3z"/>
<path d="M9220 9119 c0 -5 5 -7 10 -4 6 3 10 8 10 11 0 2 -4 4 -10 4 -5 0 -10
-5 -10 -11z"/>
<path d="M1415 8891 c-3 -5 -2 -12 3 -15 5 -3 9 1 9 9 0 17 -3 19 -12 6z"/>
<path d="M1416 8755 c-3 -8 -1 -15 4 -15 6 0 10 7 10 15 0 8 -2 15 -4 15 -2 0
-6 -7 -10 -15z"/>
<path d="M1410 8720 c0 -5 5 -10 11 -10 5 0 7 5 4 10 -3 6 -8 10 -11 10 -2 0
-4 -4 -4 -10z"/>
<path d="M1417 8664 c-9 -15 -10 -117 -1 -138 4 -12 3 -21 -3 -23 -7 -3 -6
-21 2 -58 7 -30 10 -55 5 -55 -9 0 -12 -289 -3 -304 13 -20 13 -116 0 -116 -7
-1 -5 -6 6 -14 18 -14 25 -82 7 -71 -13 8 -13 5 5 -44 8 -23 12 -48 9 -56 -3
-7 -1 -22 5 -32 7 -12 8 64 5 246 -3 146 -7 268 -10 273 -3 4 -5 87 -5 183 0
163 -7 232 -22 209z"/>
<path d="M9033 7701 c0 -11 5 -18 9 -15 4 3 5 11 1 19 -7 21 -12 19 -10 -4z"/>
<path d="M1429 7703 c-1 -5 0 -12 1 -18 1 -5 2 -29 1 -52 -1 -25 3 -43 9 -43
5 0 9 6 8 13 -2 6 2 11 7 10 6 -1 9 19 7 48 -3 34 -8 49 -18 49 -8 0 -15 -3
-15 -7z"/>
<path d="M1430 7571 c0 -6 5 -11 10 -11 6 0 10 -7 10 -15 0 -8 -5 -15 -11 -15
-6 0 -8 -9 -4 -20 4 -12 2 -27 -5 -35 -11 -14 -11 -105 0 -105 14 0 19 14 9
26 -7 9 -7 19 0 32 6 11 7 23 3 27 -4 5 -2 5 4 2 6 -3 9 -19 6 -35 -2 -16 0
-32 6 -36 12 -7 15 117 4 158 -8 29 -32 49 -32 27z"/>
<path d="M3561 7524 c0 -11 3 -14 6 -6 3 7 2 16 -1 19 -3 4 -6 -2 -5 -13z"/>
<path d="M10790 7305 c-2 -71 -4 -139 -5 -150 -1 -11 -5 -112 -10 -225 -4
-113 -9 -234 -10 -270 -2 -36 -6 -128 -9 -205 -3 -77 -10 -248 -16 -380 -12
-301 -28 -599 -40 -780 -5 -77 -14 -284 -20 -460 -6 -176 -15 -392 -20 -480
-5 -88 -12 -232 -15 -320 -3 -88 -12 -293 -20 -455 -8 -162 -19 -423 -25 -580
-6 -157 -13 -310 -15 -340 -5 -49 -20 -363 -55 -1105 -6 -121 -15 -287 -20
-370 -6 -82 -15 -226 -20 -320 -5 -93 -16 -271 -24 -395 -7 -124 -13 -234 -13
-245 0 -11 -3 -66 -7 -122 -7 -98 -6 -103 13 -103 17 0 20 9 25 73 7 90 23
354 36 602 6 105 14 251 20 325 5 74 14 234 20 355 6 121 17 353 25 515 24
479 35 702 45 928 6 118 13 259 16 315 8 165 43 1001 59 1407 8 206 19 463 25
570 5 107 12 251 15 320 3 69 8 166 10 215 24 399 38 797 42 1235 3 283 3 529
0 545 -2 17 -6 -28 -7 -100z"/>
<path d="M1456 7347 c-5 -15 -6 -31 -2 -34 11 -11 18 5 14 34 l-4 28 -8 -28z"/>
<path d="M1437 7283 c-4 -3 -7 -11 -7 -17 0 -6 5 -4 10 4 11 17 13 5 13 -92 0
-72 16 -77 18 -5 2 54 2 97 0 110 -1 9 -25 9 -34 0z"/>
<path d="M1460 7049 c0 -11 5 -17 10 -14 6 3 10 13 10 21 0 8 -4 14 -10 14 -5
0 -10 -9 -10 -21z"/>
<path d="M3611 5874 c0 -11 3 -14 6 -6 3 7 2 16 -1 19 -3 4 -6 -2 -5 -13z"/>
<path d="M9035 5691 c-3 -5 -1 -12 5 -16 5 -3 10 1 10 9 0 18 -6 21 -15 7z"/>
<path d="M9030 5584 c0 -8 5 -12 10 -9 6 4 8 11 5 16 -9 14 -15 11 -15 -7z"/>
<path d="M6840 5531 c0 -5 52 -9 128 -10 70 0 179 -2 242 -5 63 -4 309 -10
545 -16 237 -5 512 -12 613 -15 116 -4 182 -2 182 4 0 16 -67 20 -455 26 -203
3 -458 7 -565 10 -596 15 -690 15 -690 6z"/>
<path d="M2890 4830 c0 -11 4 -20 9 -20 5 0 7 9 4 20 -3 11 -7 20 -9 20 -2 0
-4 -9 -4 -20z"/>
<path d="M3193 4824 c-18 -8 -33 -17 -33 -20 0 -3 5 -2 10 1 6 3 13 -1 16 -9
3 -9 10 -16 15 -16 4 0 6 7 3 15 -7 17 11 21 21 5 4 -7 13 -7 24 0 12 6 22 5
29 -2 15 -15 24 -5 16 16 -4 11 -14 16 -25 13 -11 -3 -22 -1 -25 4 -7 11 -11
11 -51 -7z"/>
<path d="M3085 4820 c-48 -4 -59 -8 -35 -10 49 -4 93 0 105 11 5 5 7 8 5 7 -3
-1 -36 -4 -75 -8z"/>
<path d="M8305 4820 c3 -5 8 -10 11 -10 2 0 4 5 4 10 0 6 -5 10 -11 10 -5 0
-7 -4 -4 -10z"/>
<path d="M3315 4810 c-3 -5 -2 -10 4 -10 5 0 13 5 16 10 3 6 2 10 -4 10 -5 0
-13 -4 -16 -10z"/>
<path d="M6508 4813 c7 -3 16 -2 19 1 4 3 -2 6 -13 5 -11 0 -14 -3 -6 -6z"/>
<path d="M2857 4769 c-9 -10 -12 -19 -6 -19 15 0 41 28 31 34 -5 3 -16 -4 -25
-15z"/>
<path d="M2924 4775 c-18 -14 -18 -14 9 -15 15 0 27 4 27 9 0 18 -17 20 -36 6z"/>
<path d="M2588 4773 c-11 -3 -15 -10 -11 -20 5 -13 2 -15 -12 -9 -11 4 -16 4
-12 -1 5 -4 33 -9 63 -10 51 -2 54 -1 54 22 0 27 -9 32 -28 13 -9 -9 -12 -9
-12 0 0 12 -11 13 -42 5z"/>
<path d="M2680 4770 c0 -5 6 -10 14 -10 8 0 18 5 21 10 3 6 -3 10 -14 10 -12
0 -21 -4 -21 -10z"/>
<path d="M3008 4773 c7 -3 16 -2 19 1 4 3 -2 6 -13 5 -11 0 -14 -3 -6 -6z"/>
<path d="M3146 4771 c-3 -5 1 -14 8 -20 18 -15 28 0 10 16 -7 7 -15 9 -18 4z"/>
<path d="M3238 4773 c6 -2 9 -10 5 -16 -4 -7 0 -6 10 1 9 8 21 11 27 7 5 -3
10 -1 10 4 0 6 -15 11 -32 10 -18 0 -27 -3 -20 -6z"/>
<path d="M3347 4773 c-14 -13 -6 -20 18 -15 14 2 22 8 19 13 -6 11 -28 12 -37
2z"/>
<path d="M2747 4749 c-4 -16 -3 -18 9 -8 16 13 19 29 5 29 -5 0 -11 -9 -14
-21z"/>
<path d="M2803 4755 c-3 -9 -3 -18 -1 -21 3 -3 8 4 11 16 6 23 -1 27 -10 5z"/>
<path d="M3579 4698 c24 -16 36 -19 39 -10 2 7 14 10 30 7 21 -4 19 -2 -8 9
-19 8 -48 15 -65 15 l-30 1 34 -22z"/>
<path d="M3680 4692 c0 -5 -9 -12 -20 -15 -22 -6 -27 -23 -7 -25 96 -9 156 0
126 19 -7 4 -25 5 -39 2 -17 -3 -33 1 -43 12 -10 9 -17 12 -17 7z"/>
<path d="M3570 4666 c0 -11 9 -16 30 -16 28 0 45 16 18 17 -7 0 -21 4 -30 8
-13 5 -18 2 -18 -9z"/>
<path d="M8910 4673 c-1 -7 -3 -16 -4 -20 -1 -5 -5 -14 -9 -20 -5 -8 -4 -13 3
-13 14 0 23 24 17 47 -3 10 -6 12 -7 6z"/>
<path d="M3198 4663 c7 -3 16 -2 19 1 4 3 -2 6 -13 5 -11 0 -14 -3 -6 -6z"/>
<path d="M5240 4162 c0 -6 9 -12 20 -15 11 -3 20 -3 20 -1 0 2 -9 8 -20 14
-11 6 -20 7 -20 2z"/>
<path d="M5165 4040 c-10 -11 -34 -23 -54 -26 -20 -4 -41 -11 -48 -16 -7 -5
-63 -15 -125 -22 -76 -8 -103 -14 -84 -18 53 -11 180 0 248 22 69 21 98 41 98
66 0 20 -14 18 -35 -6z"/>
<path d="M6562 3893 c-71 -26 -224 -46 -286 -39 -128 16 -151 16 -131 4 81
-48 402 -61 443 -18 10 11 27 23 39 27 18 7 20 11 10 28 l-12 21 -63 -23z"/>
<path d="M715 1665 c-29 -13 -29 -13 -5 -13 14 0 43 5 65 13 l40 13 -35 1
c-19 0 -48 -6 -65 -14z"/>
<path d="M816 1661 c-3 -4 -40 -14 -83 -21 -60 -10 -73 -14 -56 -21 44 -16
192 18 178 42 -8 11 -32 12 -39 0z"/>
<path d="M1005 1651 c-16 -7 -13 -9 18 -13 23 -2 36 0 34 6 -5 14 -27 17 -52
7z"/>
<path d="M1072 1640 c3 -7 95 -79 217 -169 31 -22 18 -6 -39 48 -72 70 -188
148 -178 121z"/>
<path d="M9115 1351 c-6 -5 -21 -11 -35 -14 -16 -3 -10 -5 17 -6 34 -1 41 2
37 14 -7 18 -7 18 -19 6z"/>
<path d="M8991 1335 c-42 -14 -29 -26 16 -17 20 4 30 11 25 18 -5 8 -16 8 -41
-1z"/>
<path d="M8590 1320 c0 -5 7 -10 15 -10 8 0 15 5 15 10 0 6 -7 10 -15 10 -8 0
-15 -4 -15 -10z"/>
</g>
</svg>
